<svg xmlns="http://www.w3.org/2000/svg" xmlns:xlink="http://www.w3.org/1999/xlink" width="1080" zoomAndPan="magnify" viewBox="0 0 810 1439.999935" height="1920" preserveAspectRatio="xMidYMid meet" version="1.0"><defs><clipPath id="fe9d2ed880"><path d="M 198 654.285156 L 442 654.285156 L 442 1057 L 198 1057 Z M 198 654.285156 " clip-rule="nonzero"/></clipPath><clipPath id="7148468091"><path d="M 389 960 L 746.894531 960 L 746.894531 1358 L 389 1358 Z M 389 960 " clip-rule="nonzero"/></clipPath><clipPath id="cf034aba1a"><path d="M 408 1063 L 435 1063 L 435 1091 L 408 1091 Z M 408 1063 " clip-rule="nonzero"/></clipPath><clipPath id="5dd1f2ac06"><path d="M 404.097656 1069.191406 L 428.78125 1058.25 L 439.417969 1082.25 L 414.734375 1093.191406 Z M 404.097656 1069.191406 " clip-rule="nonzero"/></clipPath><clipPath id="007b65b801"><path d="M 404.097656 1069.191406 L 428.78125 1058.25 L 439.417969 1082.25 L 414.734375 1093.191406 Z M 404.097656 1069.191406 " clip-rule="nonzero"/></clipPath><clipPath id="ddefd298c7"><path d="M 304 720 L 348 720 L 348 765 L 304 765 Z M 304 720 " clip-rule="nonzero"/></clipPath><clipPath id="7b23a253d5"><path d="M 311.921875 712.644531 L 353.148438 728.714844 L 337.898438 767.847656 L 296.667969 751.777344 Z M 311.921875 712.644531 " clip-rule="nonzero"/></clipPath><clipPath id="c786339156"><path d="M 311.921875 712.644531 L 353.148438 728.714844 L 337.898438 767.847656 L 296.667969 751.777344 Z M 311.921875 712.644531 " clip-rule="nonzero"/></clipPath><clipPath id="593df74b58"><path d="M 278 735 L 295 735 L 295 753 L 278 753 Z M 278 735 " clip-rule="nonzero"/></clipPath><clipPath id="45d17ed98b"><path d="M 281.03125 732.730469 L 296.4375 738.632812 L 290.804688 753.339844 L 275.394531 747.4375 Z M 281.03125 732.730469 " clip-rule="nonzero"/></clipPath><clipPath id="59a647350d"><path d="M 281.03125 732.730469 L 296.4375 738.632812 L 290.804688 753.339844 L 275.394531 747.4375 Z M 281.03125 732.730469 " clip-rule="nonzero"/></clipPath><clipPath id="4f64cf5015"><path d="M 264 754 L 276 754 L 276 766 L 264 766 Z M 264 754 " clip-rule="nonzero"/></clipPath><clipPath id="810f280b40"><path d="M 266.480469 752.078125 L 276.984375 756.105469 L 273.226562 765.910156 L 262.722656 761.882812 Z M 266.480469 752.078125 " clip-rule="nonzero"/></clipPath><clipPath id="ea1b56628f"><path d="M 266.480469 752.078125 L 276.984375 756.105469 L 273.226562 765.910156 L 262.722656 761.882812 Z M 266.480469 752.078125 " clip-rule="nonzero"/></clipPath><clipPath id="451ff491c2"><path d="M 326 701 L 338 701 L 338 713 L 326 713 Z M 326 701 " clip-rule="nonzero"/></clipPath><clipPath id="7ff09585e0"><path d="M 328.796875 699.828125 L 339.234375 704.023438 L 335.320312 713.765625 L 324.882812 709.570312 Z M 328.796875 699.828125 " clip-rule="nonzero"/></clipPath><clipPath id="5bf5411698"><path d="M 328.796875 699.828125 L 339.234375 704.023438 L 335.320312 713.765625 L 324.882812 709.570312 Z M 328.796875 699.828125 " clip-rule="nonzero"/></clipPath><clipPath id="b44e586216"><path d="M 356 696 L 368 696 L 368 708 L 356 708 Z M 356 696 " clip-rule="nonzero"/></clipPath><clipPath id="e5cd024abf"><path d="M 358.347656 694.578125 L 368.785156 698.773438 L 364.871094 708.515625 L 354.429688 704.320312 Z M 358.347656 694.578125 " clip-rule="nonzero"/></clipPath><clipPath id="5457d90173"><path d="M 358.347656 694.578125 L 368.785156 698.773438 L 364.871094 708.515625 L 354.429688 704.320312 Z M 358.347656 694.578125 " clip-rule="nonzero"/></clipPath><clipPath id="77273ccbaa"><path d="M 354 717 L 370 717 L 370 734 L 354 734 Z M 354 717 " clip-rule="nonzero"/></clipPath><clipPath id="3e8c7dad9e"><path d="M 357.101562 714.824219 L 371.714844 720.699219 L 366.121094 734.617188 L 351.507812 728.742188 Z M 357.101562 714.824219 " clip-rule="nonzero"/></clipPath><clipPath id="486ea1a2c2"><path d="M 357.101562 714.824219 L 371.714844 720.699219 L 366.121094 734.617188 L 351.507812 728.742188 Z M 357.101562 714.824219 " clip-rule="nonzero"/></clipPath><clipPath id="a286eca519"><path d="M 357 746 L 378 746 L 378 768 L 357 768 Z M 357 746 " clip-rule="nonzero"/></clipPath><clipPath id="57f925c711"><path d="M 361.25 742.476562 L 380.734375 750.308594 L 373.460938 768.402344 L 353.976562 760.570312 Z M 361.25 742.476562 " clip-rule="nonzero"/></clipPath><clipPath id="7b4a68d166"><path d="M 361.25 742.476562 L 380.734375 750.308594 L 373.460938 768.402344 L 353.976562 760.570312 Z M 361.25 742.476562 " clip-rule="nonzero"/></clipPath><clipPath id="ab78e75144"><path d="M 422.425781 1111.714844 L 462.925781 1111.714844 L 462.925781 1149.964844 L 422.425781 1149.964844 Z M 422.425781 1111.714844 " clip-rule="nonzero"/></clipPath><clipPath id="6dd7f7eee4"><path d="M 513.113281 1120 L 556.613281 1120 L 556.613281 1161.238281 L 513.113281 1161.238281 Z M 513.113281 1120 " clip-rule="nonzero"/></clipPath><clipPath id="3fd47cd470"><path d="M 513.113281 1120 L 556.613281 1120 L 556.613281 1161 L 513.113281 1161 Z M 513.113281 1120 " clip-rule="nonzero"/></clipPath><clipPath id="24d08caf2a"><path d="M 528.085938 1262.097656 L 570.085938 1262.097656 L 570.085938 1302.597656 L 528.085938 1302.597656 Z M 528.085938 1262.097656 " clip-rule="nonzero"/></clipPath><clipPath id="c2ee62f22b"><path d="M 667 1181 L 707 1181 L 707 1221 L 667 1221 Z M 667 1181 " clip-rule="nonzero"/></clipPath><clipPath id="17910bdf16"><path d="M 678.835938 1171.839844 L 713.644531 1191.039062 L 695.53125 1223.875 L 660.726562 1204.675781 Z M 678.835938 1171.839844 " clip-rule="nonzero"/></clipPath><clipPath id="3bd7224fd7"><path d="M 678.835938 1171.839844 L 713.644531 1191.039062 L 695.53125 1223.875 L 660.726562 1204.675781 Z M 678.835938 1171.839844 " clip-rule="nonzero"/></clipPath><clipPath id="3a4b24d4bd"><path d="M 698 1242 L 725 1242 L 725 1269 L 698 1269 Z M 698 1242 " clip-rule="nonzero"/></clipPath><clipPath id="7565e4ac81"><path d="M 694.019531 1247.703125 L 718.488281 1236.292969 L 729.265625 1259.402344 L 704.792969 1270.8125 Z M 694.019531 1247.703125 " clip-rule="nonzero"/></clipPath><clipPath id="4df23d52d6"><path d="M 694.019531 1247.703125 L 718.488281 1236.292969 L 729.265625 1259.402344 L 704.792969 1270.8125 Z M 694.019531 1247.703125 " clip-rule="nonzero"/></clipPath><clipPath id="d05b033fd0"><path d="M 460 1174 L 514 1174 L 514 1231 L 460 1231 Z M 460 1174 " clip-rule="nonzero"/></clipPath><clipPath id="5faf3ef39b"><path d="M 466.09375 1166.179688 L 519.730469 1183.117188 L 503.695312 1233.894531 L 450.054688 1216.957031 Z M 466.09375 1166.179688 " clip-rule="nonzero"/></clipPath><clipPath id="dd318c91a3"><path d="M 466.09375 1166.179688 L 519.730469 1183.117188 L 503.695312 1233.894531 L 450.054688 1216.957031 Z M 466.09375 1166.179688 " clip-rule="nonzero"/></clipPath><clipPath id="4eb10f5ad3"><path d="M 459 1174 L 514 1174 L 514 1231 L 459 1231 Z M 459 1174 " clip-rule="nonzero"/></clipPath><clipPath id="139f012ddd"><path d="M 466.09375 1166.179688 L 519.730469 1183.117188 L 503.695312 1233.894531 L 450.054688 1216.957031 Z M 466.09375 1166.179688 " clip-rule="nonzero"/></clipPath><clipPath id="1eac113b32"><path d="M 466.09375 1166.179688 L 519.730469 1183.117188 L 503.695312 1233.894531 L 450.054688 1216.957031 Z M 466.09375 1166.179688 " clip-rule="nonzero"/></clipPath><clipPath id="c859bb46e7"><path d="M 420 1254 L 464 1254 L 464 1297 L 420 1297 Z M 420 1254 " clip-rule="nonzero"/></clipPath><clipPath id="190d617a1a"><path d="M 433.753906 1243.507812 L 471.757812 1264.671875 L 451.6875 1300.710938 L 413.683594 1279.542969 Z M 433.753906 1243.507812 " clip-rule="nonzero"/></clipPath><clipPath id="abe0a43858"><path d="M 433.753906 1243.507812 L 471.757812 1264.671875 L 451.6875 1300.710938 L 413.683594 1279.542969 Z M 433.753906 1243.507812 " clip-rule="nonzero"/></clipPath><clipPath id="241771ae38"><path d="M 461 1315 L 492 1315 L 492 1345 L 461 1345 Z M 461 1315 " clip-rule="nonzero"/></clipPath><clipPath id="d8f1b9e17a"><path d="M 476.207031 1307.542969 L 498.613281 1327.492188 L 479.660156 1348.777344 L 457.253906 1328.828125 Z M 476.207031 1307.542969 " clip-rule="nonzero"/></clipPath><clipPath id="751171ab87"><path d="M 476.207031 1307.542969 L 498.613281 1327.492188 L 479.660156 1348.777344 L 457.253906 1328.828125 Z M 476.207031 1307.542969 " clip-rule="nonzero"/></clipPath><clipPath id="6c5756a31b"><path d="M 579 1143 L 737 1143 L 737 1327 L 579 1327 Z M 579 1143 " clip-rule="nonzero"/></clipPath><clipPath id="8d0444ac19"><path d="M 598.34375 1128.492188 L 763.402344 1159.796875 L 729.304688 1339.589844 L 564.246094 1308.289062 Z M 598.34375 1128.492188 " clip-rule="nonzero"/></clipPath><clipPath id="2069ccc2ba"><path d="M 763.054688 1159.730469 L 598 1128.429688 L 563.902344 1308.222656 L 728.957031 1339.527344 Z M 763.054688 1159.730469 " clip-rule="nonzero"/></clipPath><clipPath id="37ec3ccd69"><path d="M 272 933 L 356 933 L 356 977 L 272 977 Z M 272 933 " clip-rule="nonzero"/></clipPath><clipPath id="59066e794d"><path d="M 272.132812 933.464844 L 355.335938 936.292969 L 353.78125 982.015625 L 270.578125 979.1875 Z M 272.132812 933.464844 " clip-rule="nonzero"/></clipPath><clipPath id="c4adbd53d1"><path d="M 272.132812 933.464844 L 355.335938 936.292969 L 353.78125 982.015625 L 270.578125 979.1875 Z M 272.132812 933.464844 " clip-rule="nonzero"/></clipPath><clipPath id="fa84a1de8d"><path d="M 284 950 L 341 950 L 341 977 L 284 977 Z M 284 950 " clip-rule="nonzero"/></clipPath><clipPath id="105542aba9"><path d="M 272.132812 933.464844 L 355.335938 936.292969 L 353.78125 982.015625 L 270.578125 979.1875 Z M 272.132812 933.464844 " clip-rule="nonzero"/></clipPath><clipPath id="902b70d9e5"><path d="M 272.132812 933.464844 L 355.335938 936.292969 L 353.78125 982.015625 L 270.578125 979.1875 Z M 272.132812 933.464844 " clip-rule="nonzero"/></clipPath><clipPath id="dd7d05a567"><path d="M 339.972656 863.742188 L 367.722656 863.742188 L 367.722656 891.492188 L 339.972656 891.492188 Z M 339.972656 863.742188 " clip-rule="nonzero"/></clipPath><clipPath id="21c4d0e895"><path d="M 390.167969 653.535156 L 443.417969 653.535156 L 443.417969 706.785156 L 390.167969 706.785156 Z M 390.167969 653.535156 " clip-rule="nonzero"/></clipPath><clipPath id="72fb4a5402"><path d="M 258.984375 863.742188 L 286.734375 863.742188 L 286.734375 891.492188 L 258.984375 891.492188 Z M 258.984375 863.742188 " clip-rule="nonzero"/></clipPath><clipPath id="be9a136ec2"><path d="M 268.742188 873.496094 L 276.992188 873.496094 L 276.992188 881.746094 L 268.742188 881.746094 Z M 268.742188 873.496094 " clip-rule="nonzero"/></clipPath><clipPath id="35d53dea0f"><path d="M 349.726562 873.496094 L 357.976562 873.496094 L 357.976562 881.746094 L 349.726562 881.746094 Z M 349.726562 873.496094 " clip-rule="nonzero"/></clipPath><clipPath id="a152c8a469"><path d="M 226 176 L 678 176 L 678 579.859375 L 226 579.859375 Z M 226 176 " clip-rule="nonzero"/></clipPath><clipPath id="9456b3466c"><path d="M 208 160.609375 L 670 160.609375 L 670 574 L 208 574 Z M 208 160.609375 " clip-rule="nonzero"/></clipPath></defs><path fill="#a61c41" d="M 188.546875 1311.558594 C 150.65625 1312.625 157.722656 1356.523438 157.722656 1356.523438 L 285.890625 1356.523438 C 272.578125 1340.699219 226.457031 1310.417969 188.546875 1311.558594 Z M 188.546875 1311.558594 " fill-opacity="1" fill-rule="nonzero"/><path fill="#a61c41" d="M 147.210938 968.578125 C 153.195312 965.511719 160.019531 956.476562 161.109375 945.417969 C 162.390625 931.660156 154.035156 920.558594 147.730469 919.992188 C 143.167969 919.578125 140.945312 926.261719 141.40625 935.667969 C 139.519531 932.25 137.359375 928.875 134.582031 925.707031 C 118.527344 906.707031 100.625 901.304688 81.652344 911.371094 C 66.507812 919.511719 62.679688 937.308594 78.832031 956.316406 C 94.988281 975.320312 126.878906 991.464844 140.027344 980.292969 C 143.59375 977.234375 145.933594 973.140625 147.210938 968.578125 Z M 147.210938 968.578125 " fill-opacity="1" fill-rule="nonzero"/><path fill="#a61c41" d="M 286.085938 877.667969 C 286.085938 878.550781 286 879.421875 285.828125 880.289062 C 285.65625 881.152344 285.402344 881.992188 285.0625 882.808594 C 284.726562 883.625 284.3125 884.398438 283.820312 885.128906 C 283.332031 885.863281 282.773438 886.542969 282.152344 887.167969 C 281.527344 887.789062 280.847656 888.347656 280.117188 888.835938 C 279.382812 889.328125 278.609375 889.742188 277.792969 890.078125 C 276.980469 890.414062 276.140625 890.671875 275.273438 890.84375 C 274.410156 891.015625 273.535156 891.101562 272.652344 891.101562 C 271.773438 891.101562 270.898438 891.015625 270.03125 890.84375 C 269.167969 890.671875 268.328125 890.414062 267.511719 890.078125 C 266.699219 889.742188 265.925781 889.328125 265.191406 888.835938 C 264.457031 888.347656 263.78125 887.789062 263.15625 887.167969 C 262.53125 886.542969 261.976562 885.863281 261.484375 885.128906 C 260.996094 884.398438 260.582031 883.625 260.242188 882.808594 C 259.90625 881.992188 259.652344 881.152344 259.480469 880.289062 C 259.308594 879.421875 259.222656 878.550781 259.222656 877.667969 C 259.222656 876.785156 259.308594 875.914062 259.480469 875.046875 C 259.652344 874.183594 259.90625 873.34375 260.242188 872.527344 C 260.582031 871.714844 260.996094 870.9375 261.484375 870.207031 C 261.976562 869.472656 262.53125 868.792969 263.15625 868.171875 C 263.78125 867.546875 264.457031 866.988281 265.191406 866.5 C 265.925781 866.011719 266.699219 865.597656 267.511719 865.257812 C 268.328125 864.921875 269.167969 864.667969 270.03125 864.496094 C 270.898438 864.320312 271.773438 864.234375 272.652344 864.234375 C 273.535156 864.234375 274.410156 864.320312 275.273438 864.496094 C 276.140625 864.667969 276.980469 864.921875 277.792969 865.257812 C 278.609375 865.597656 279.382812 866.011719 280.117188 866.5 C 280.847656 866.988281 281.527344 867.546875 282.152344 868.171875 C 282.773438 868.792969 283.332031 869.472656 283.820312 870.207031 C 284.3125 870.9375 284.726562 871.714844 285.0625 872.527344 C 285.402344 873.34375 285.65625 874.183594 285.828125 875.046875 C 286 875.914062 286.085938 876.785156 286.085938 877.667969 Z M 286.085938 877.667969 " fill-opacity="1" fill-rule="nonzero"/><path fill="#a61c41" d="M 366.609375 877.667969 C 366.609375 878.550781 366.523438 879.421875 366.351562 880.289062 C 366.179688 881.152344 365.925781 881.992188 365.589844 882.808594 C 365.25 883.625 364.835938 884.398438 364.347656 885.128906 C 363.855469 885.863281 363.300781 886.542969 362.675781 887.167969 C 362.054688 887.789062 361.375 888.347656 360.640625 888.835938 C 359.90625 889.328125 359.132812 889.742188 358.320312 890.078125 C 357.503906 890.414062 356.664062 890.671875 355.800781 890.84375 C 354.933594 891.015625 354.0625 891.101562 353.179688 891.101562 C 352.296875 891.101562 351.421875 891.015625 350.558594 890.84375 C 349.695312 890.671875 348.855469 890.414062 348.039062 890.078125 C 347.222656 889.742188 346.449219 889.328125 345.714844 888.835938 C 344.984375 888.347656 344.304688 887.789062 343.679688 887.167969 C 343.058594 886.542969 342.5 885.863281 342.011719 885.128906 C 341.519531 884.398438 341.105469 883.625 340.769531 882.808594 C 340.433594 881.992188 340.175781 881.152344 340.003906 880.289062 C 339.832031 879.421875 339.746094 878.550781 339.746094 877.667969 C 339.746094 876.785156 339.832031 875.914062 340.003906 875.046875 C 340.175781 874.183594 340.433594 873.34375 340.769531 872.527344 C 341.105469 871.714844 341.519531 870.9375 342.011719 870.207031 C 342.5 869.472656 343.058594 868.792969 343.679688 868.171875 C 344.304688 867.546875 344.984375 866.988281 345.714844 866.5 C 346.449219 866.011719 347.222656 865.597656 348.039062 865.257812 C 348.855469 864.921875 349.695312 864.667969 350.558594 864.496094 C 351.421875 864.320312 352.296875 864.234375 353.179688 864.234375 C 354.0625 864.234375 354.933594 864.320312 355.800781 864.496094 C 356.664062 864.667969 357.503906 864.921875 358.320312 865.257812 C 359.132812 865.597656 359.90625 866.011719 360.640625 866.5 C 361.375 866.988281 362.054688 867.546875 362.675781 868.171875 C 363.300781 868.792969 363.855469 869.472656 364.347656 870.207031 C 364.835938 870.9375 365.25 871.714844 365.589844 872.527344 C 365.925781 873.34375 366.179688 874.183594 366.351562 875.046875 C 366.523438 875.914062 366.609375 876.785156 366.609375 877.667969 Z M 366.609375 877.667969 " fill-opacity="1" fill-rule="nonzero"/><g clip-path="url(#fe9d2ed880)"><path fill="#a61c41" d="M 213.648438 912.175781 C 205.453125 920.605469 200.378906 932.09375 200.378906 944.796875 C 200.378906 970.667969 221.363281 991.71875 247.261719 991.71875 C 249.1875 991.71875 251.027344 991.382812 252.84375 991.132812 C 252.84375 991.308594 252.84375 991.46875 252.84375 991.644531 C 252.84375 1019.335938 279.6875 1056.15625 312.894531 1056.15625 C 346.105469 1056.15625 372.957031 1019.335938 372.957031 991.644531 C 372.957031 991.46875 372.957031 991.308594 372.957031 991.132812 C 374.808594 991.339844 376.644531 991.71875 378.53125 991.71875 C 404.433594 991.71875 425.414062 970.699219 425.414062 944.796875 C 425.414062 932.09375 420.300781 920.605469 412.144531 912.175781 C 420.960938 906.121094 426.804688 895.980469 426.804688 884.492188 C 426.804688 873.695312 421.515625 864.34375 413.644531 858.210938 C 414.90625 858 416.914062 857.011719 416.914062 853.113281 C 416.914062 852.296875 417.054688 851.066406 417.273438 849.425781 C 418.523438 838.648438 421.441406 813.472656 403.339844 793.164062 C 400.757812 790.203125 397.691406 787.570312 394.394531 785.097656 C 378.679688 746.097656 393.554688 714.457031 394.949219 696.664062 C 399.691406 702.753906 407.027344 706.765625 415.378906 706.765625 C 429.683594 706.765625 441.285156 695.207031 441.285156 680.867188 C 441.292969 666.558594 429.691406 654.957031 415.386719 654.957031 C 401.050781 654.957031 389.449219 666.558594 389.449219 680.863281 C 389.449219 681.765625 389.625 682.605469 389.730469 683.515625 C 386.773438 681.839844 382.589844 680.863281 376.265625 680.863281 C 332.597656 680.863281 256.777344 719.894531 234.953125 782.621094 C 230.25 785.757812 225.992188 789.183594 222.445312 793.171875 C 204.308594 813.480469 207.269531 838.65625 208.511719 849.433594 C 208.722656 851.035156 208.871094 852.304688 208.871094 853.121094 C 208.871094 854.210938 209.011719 855.046875 209.285156 855.742188 C 209.816406 857.09375 210.957031 857.898438 212.308594 858.113281 C 204.308594 864.242188 198.980469 873.613281 198.980469 884.5 C 198.953125 895.980469 204.832031 906.113281 213.648438 912.175781 Z M 312.929688 975.363281 C 290.714844 975.363281 272.652344 951.472656 272.652344 944.023438 C 272.652344 936.613281 290.679688 935.085938 312.929688 935.085938 C 335.179688 935.085938 353.207031 936.621094 353.207031 944.023438 C 353.179688 951.476562 335.144531 975.363281 312.929688 975.363281 Z M 391.636719 920.742188 C 376.332031 923.234375 340.367188 912.722656 329.890625 906.917969 C 326.820312 911.75 320.410156 913.742188 312.929688 913.742188 C 305.449219 913.742188 299.03125 911.78125 295.972656 906.917969 C 285.496094 912.722656 249.492188 923.199219 234.1875 920.707031 C 213.769531 917.429688 223.871094 898.167969 215.214844 857.675781 C 216.140625 857.234375 217.121094 856.609375 218.445312 855.660156 C 226.28125 850.304688 250.03125 833.945312 312.9375 833.945312 C 375.839844 833.945312 399.589844 850.296875 407.429688 855.660156 C 408.710938 856.574219 409.691406 857.195312 410.65625 857.675781 C 401.988281 898.207031 412.023438 917.429688 391.636719 920.742188 Z M 370.410156 753.976562 L 376.78125 757.597656 L 369.996094 760.480469 L 368.570312 767.65625 L 363.726562 762.117188 L 356.457031 762.953125 L 360.253906 756.652344 L 357.152344 749.96875 L 364.3125 751.609375 L 369.710938 746.65625 Z M 356.03125 698.734375 L 359.71875 699.585938 L 362.476562 697.023438 L 362.8125 700.820312 L 366.089844 702.683594 L 362.617188 704.144531 L 361.855469 707.8125 L 359.375 704.984375 L 355.617188 705.410156 L 357.589844 702.199219 Z M 353.765625 720.480469 L 359.164062 721.730469 L 363.210938 717.976562 L 363.726562 723.476562 L 368.535156 726.199219 L 363.421875 728.40625 L 362.300781 733.785156 L 358.652344 729.628906 L 353.179688 730.257812 L 356.03125 725.523438 Z M 326.167969 704.144531 L 329.855469 704.984375 L 332.640625 702.421875 L 332.957031 706.179688 L 336.253906 708.050781 L 332.742188 709.550781 L 332.011719 713.238281 L 329.539062 710.386719 L 325.773438 710.8125 L 327.753906 707.570312 Z M 304.789062 728.210938 L 319.828125 731.691406 L 331.171875 721.285156 L 332.53125 736.609375 L 345.910156 744.199219 L 331.726562 750.226562 L 328.660156 765.292969 L 318.539062 753.691406 L 303.253906 755.441406 L 311.214844 742.238281 Z M 278.921875 739.203125 L 284.324219 740.433594 L 288.417969 736.710938 L 288.882812 742.230469 L 293.746094 744.953125 L 288.597656 747.152344 L 287.550781 752.550781 L 283.898438 748.402344 L 278.390625 749.003906 L 281.222656 744.265625 Z M 264.363281 756.199219 L 268.019531 757.035156 L 270.796875 754.488281 L 271.152344 758.285156 L 274.429688 760.136719 L 270.9375 761.628906 L 270.207031 765.320312 L 267.726562 762.46875 L 263.972656 762.914062 L 265.929688 759.703125 Z M 227.484375 797.601562 C 242.878906 780.285156 271.667969 771.488281 312.929688 771.488281 C 354.191406 771.488281 382.984375 780.285156 398.375 797.601562 C 414.476562 815.703125 411.804688 838.769531 410.644531 848.628906 C 410.644531 848.988281 410.550781 849.335938 410.515625 849.675781 C 400.933594 843.0625 376.328125 827.25 312.921875 827.25 C 249.519531 827.25 224.917969 843.066406 215.332031 849.675781 C 215.296875 849.335938 215.203125 848.980469 215.203125 848.628906 C 214.058594 838.8125 211.351562 815.703125 227.484375 797.601562 Z M 227.484375 797.601562 " fill-opacity="1" fill-rule="nonzero"/></g><path fill="#a61c41" d="M 312.71875 888.355469 C 306.003906 888.355469 300.269531 892.4375 297.828125 898.242188 C 301.484375 894.039062 306.667969 891.277344 312.644531 891.277344 C 318.816406 891.277344 324.105469 894.304688 327.753906 898.753906 C 325.367188 892.703125 319.613281 888.355469 312.71875 888.355469 Z M 312.71875 888.355469 " fill-opacity="1" fill-rule="nonzero"/><path fill="#a61c41" d="M 339.640625 1356.523438 L 401.183594 1356.523438 C 392.652344 1348.21875 386.957031 1337.136719 385.3125 1324.738281 C 364.664062 1334.613281 347.050781 1347.761719 339.640625 1356.523438 Z M 339.640625 1356.523438 " fill-opacity="1" fill-rule="nonzero"/><path fill="#a61c41" d="M 384.550781 1232.316406 C 363.652344 1234.132812 339.8125 1235.234375 312.894531 1235.234375 C 207.269531 1235.234375 144.878906 1220.058594 136.878906 1204.382812 C 133.972656 1198.539062 142.167969 1180.304688 147.730469 1178.230469 C 153.269531 1176.160156 239.445312 1206.734375 312.894531 1206.734375 C 336.464844 1206.734375 361.320312 1203.242188 384.550781 1198.757812 L 384.550781 1143.59375 L 374.625 1143.59375 L 374.625 1071.265625 C 374.625 1044.828125 392.933594 1022.664062 417.507812 1016.339844 L 416.191406 1013.171875 L 444.925781 1001.058594 C 445.320312 986.820312 447.738281 972.921875 455.332031 961.992188 C 448.445312 947.578125 445.320312 931.1875 456.433594 924.472656 C 454.617188 924.992188 452.871094 924.742188 451.089844 925.753906 C 443.070312 930.390625 440.148438 937.835938 440.148438 946.085938 L 434.128906 949.539062 C 432.453125 969.132812 420.449219 985.523438 403.828125 994.132812 C 401.996094 995.078125 400.171875 995.949219 398.265625 996.679688 C 392.90625 998.761719 387.257812 1000.402344 381.199219 1000.707031 C 380.359375 1005.910156 378.683594 1011.089844 376.636719 1016.207031 C 376.191406 1017.273438 375.726562 1018.320312 375.246094 1019.375 C 373.015625 1024.308594 370.46875 1029.117188 367.300781 1033.609375 C 354.664062 1051.679688 335.070312 1065.21875 312.929688 1065.21875 C 289.429688 1065.21875 268.964844 1049.960938 256.492188 1030.660156 C 253.640625 1026.273438 251.300781 1021.679688 249.328125 1017.003906 C 249.078125 1016.414062 248.796875 1015.847656 248.566406 1015.261719 C 246.675781 1010.429688 245.179688 1005.515625 244.453125 1000.664062 C 238.28125 1000.363281 232.585938 998.578125 227.082031 996.429688 C 225.230469 995.664062 223.355469 994.863281 221.605469 993.914062 C 204.527344 984.867188 192.410156 967.671875 191.5 947.242188 L 185.445312 943.746094 C 185.445312 935.464844 182.527344 928.050781 174.507812 923.417969 C 172.691406 922.402344 170.925781 922.652344 169.175781 922.140625 C 181.953125 929.835938 176.175781 950.539062 167.203125 966.039062 C 158.3125 981.539062 143.277344 996.867188 130.183594 989.640625 C 131.480469 990.957031 132.175781 992.597656 133.980469 993.613281 C 143.386719 999.0625 152.582031 996.355469 160.617188 990.300781 L 210.371094 1011.253906 L 130.46875 1203.101562 C 130.46875 1212.289062 148.054688 1220.59375 176.109375 1227.003906 C 180.113281 1241.152344 197.453125 1253.476562 223.355469 1262.25 C 242.546875 1289.394531 201.359375 1306.03125 213.363281 1306.03125 C 259.492188 1306.03125 290.539062 1358.015625 301.585938 1352.386719 C 310.566406 1347.820312 312.382812 1300.894531 312.792969 1283.226562 C 313.1875 1300.863281 315.023438 1347.828125 323.996094 1352.386719 C 332.640625 1356.800781 353.734375 1326.160156 384.589844 1312.550781 L 384.589844 1232.316406 Z M 312.789062 1095.5625 C 321.570312 1095.5625 328.734375 1102.691406 328.734375 1111.527344 C 328.734375 1120.324219 321.605469 1127.417969 312.789062 1127.417969 C 303.949219 1127.417969 296.84375 1120.324219 296.84375 1111.527344 C 296.84375 1102.691406 303.957031 1095.5625 312.789062 1095.5625 Z M 312.789062 1150.296875 C 321.570312 1150.296875 328.734375 1157.425781 328.734375 1166.257812 C 328.734375 1175.0625 321.605469 1182.148438 312.789062 1182.148438 C 303.949219 1182.148438 296.84375 1175.0625 296.84375 1166.257812 C 296.84375 1157.417969 303.957031 1150.296875 312.789062 1150.296875 Z M 312.789062 1276.207031 C 312.714844 1276.207031 311.539062 1275.847656 310.667969 1275.53125 C 311.394531 1275.53125 312.058594 1275.597656 312.789062 1275.597656 C 313.519531 1275.597656 314.179688 1275.53125 314.902344 1275.53125 C 314.019531 1275.855469 312.863281 1276.207031 312.789062 1276.207031 Z M 312.789062 1276.207031 " fill-opacity="1" fill-rule="nonzero"/><path fill="#a61c41" d="M 493.636719 946.984375 L 504.859375 949.496094 C 514.1875 951.613281 524.8125 956.949219 535.109375 963.660156 C 538.535156 960.742188 541.734375 957.746094 544.410156 954.570312 C 560.511719 935.566406 556.734375 917.707031 541.59375 909.628906 C 522.566406 899.503906 504.683594 904.957031 488.648438 923.972656 C 485.90625 927.140625 483.765625 930.492188 481.804688 933.898438 C 482.296875 924.527344 480.054688 917.84375 475.492188 918.234375 C 469.183594 918.855469 460.886719 929.902344 462.128906 943.671875 C 462.453125 946.773438 463.269531 949.648438 464.339844 952.347656 C 472.5 946.800781 482.796875 944.6875 493.636719 946.984375 Z M 493.636719 946.984375 " fill-opacity="1" fill-rule="nonzero"/><path fill="#a61c41" d="M 606.011719 1037.699219 L 612.289062 1039.125 C 624.472656 1041.902344 634.445312 1033.914062 634.445312 1021.414062 L 634.445312 1020.957031 C 634.445312 1008.460938 624.464844 1000.46875 612.289062 1003.214844 L 606.011719 1004.636719 C 593.824219 1007.367188 583.851562 1014.773438 583.851562 1021.171875 C 583.851562 1027.550781 593.824219 1035.03125 606.011719 1037.699219 Z M 606.011719 1037.699219 " fill-opacity="1" fill-rule="nonzero"/><path fill="#a61c41" d="M 628.890625 1100.054688 C 640.011719 1100.980469 624.644531 1090.925781 630.671875 1081.171875 C 609.9375 1075.402344 597.464844 1059.753906 584.957031 1039.691406 C 584.957031 1051.988281 617.769531 1099.089844 628.890625 1100.054688 Z M 628.890625 1100.054688 " fill-opacity="1" fill-rule="nonzero"/><g clip-path="url(#7148468091)"><path fill="#a61c41" d="M 705.0625 1029.078125 L 676.097656 1029.078125 C 676.421875 1026.726562 677.089844 1024.550781 677.089844 1022.023438 L 677.132812 1015.949219 C 677.308594 997.78125 677.488281 977.199219 667.1875 966.828125 C 661.875 961.429688 654.363281 959.511719 646.058594 961.328125 L 635.011719 963.800781 C 617.226562 967.773438 591.253906 987.367188 577.898438 1003.421875 C 575.9375 1002.726562 573.976562 1002.375 571.902344 1002.375 L 564.742188 1002.375 C 562.675781 1002.375 560.675781 1002.734375 558.789062 1003.421875 C 545.359375 987.410156 519.386719 967.773438 501.601562 963.769531 L 490.554688 961.328125 C 482.222656 959.546875 474.738281 961.4375 469.425781 966.828125 C 459.128906 977.199219 459.347656 997.773438 459.519531 1015.914062 L 459.554688 1022.8125 C 459.554688 1025.015625 460.164062 1026.941406 460.414062 1029.042969 L 431.5625 1029.042969 C 408.332031 1029.042969 389.273438 1048.042969 389.273438 1071.273438 L 389.273438 1128.917969 L 399.210938 1128.917969 L 399.210938 1317.476562 C 399.210938 1339.347656 417.117188 1357.3125 438.960938 1357.3125 L 697.636719 1357.3125 C 719.515625 1357.3125 737.441406 1339.355469 737.441406 1317.476562 L 737.441406 1128.914062 L 747.347656 1128.914062 L 747.347656 1071.265625 C 747.359375 1048.109375 728.265625 1029.078125 705.0625 1029.078125 Z M 682.71875 1189.953125 L 692.875 1182.539062 L 692.558594 1195.113281 L 702.710938 1202.527344 L 690.632812 1206.085938 L 686.710938 1218.058594 L 679.625 1207.65625 L 667.113281 1207.65625 L 674.738281 1197.707031 L 670.894531 1185.742188 Z M 416.507812 1080.175781 L 408.300781 1077.183594 L 415.710938 1072.550781 L 416.125 1063.785156 L 422.839844 1069.414062 L 431.265625 1067.023438 L 427.933594 1075.183594 L 432.800781 1082.449219 L 424.070312 1081.804688 L 418.671875 1088.71875 Z M 435.339844 1123.925781 L 441.75 1110.878906 L 448.164062 1123.925781 L 461.878906 1125.917969 C 461.921875 1126.167969 461.921875 1126.378906 461.988281 1126.628906 L 452.15625 1136.175781 L 454.546875 1150.535156 L 441.722656 1143.730469 L 428.859375 1150.535156 L 431.300781 1136.175781 L 420.859375 1125.988281 Z M 443.644531 1295.132812 L 435.597656 1282.976562 L 421.082031 1282.769531 L 430.128906 1271.363281 L 425.875 1257.539062 L 439.449219 1262.523438 L 451.351562 1254.1875 L 450.777344 1268.722656 L 462.398438 1277.417969 L 448.359375 1281.335938 Z M 479.667969 1333.71875 L 474.460938 1342.199219 L 470.867188 1332.9375 L 461.246094 1330.660156 L 468.941406 1324.382812 L 468.164062 1314.476562 L 476.535156 1319.894531 L 485.683594 1316.113281 L 483.082031 1325.664062 L 489.492188 1333.210938 Z M 494.167969 1210.796875 L 491.277344 1230 L 477.8125 1216.039062 L 458.644531 1219.25 L 467.765625 1202.074219 L 458.785156 1184.863281 L 477.960938 1188.210938 L 491.5 1174.386719 L 494.277344 1193.628906 L 511.585938 1202.285156 Z M 512.269531 1135.96875 L 526.703125 1133.832031 L 533.148438 1120.792969 L 539.558594 1133.832031 L 554.03125 1135.96875 L 543.554688 1146.089844 L 546.011719 1160.40625 L 533.148438 1153.636719 L 520.289062 1160.40625 L 522.683594 1146.089844 Z M 560.332031 1301.292969 L 547.507812 1294.523438 L 534.574219 1301.292969 L 537.035156 1286.96875 L 526.628906 1276.78125 L 541.058594 1274.714844 L 547.507812 1261.667969 L 553.917969 1274.714844 L 568.316406 1276.78125 L 557.910156 1286.96875 Z M 571.878906 1047.179688 L 564.75 1047.179688 C 560.9375 1047.179688 557.769531 1044.152344 555.695312 1039.800781 C 544.511719 1082.804688 496.90625 1129.164062 479.414062 1130.621094 C 459.535156 1132.296875 484.367188 1094.171875 473.570312 1076.609375 C 503.035156 1068.375 524.769531 1061.644531 543.695312 1041.367188 C 536.957031 1045.746094 528.554688 1049.457031 519.324219 1051.449219 L 508.3125 1053.941406 C 486.933594 1058.71875 469.472656 1044.753906 469.472656 1022.867188 L 469.472656 1022.089844 C 469.472656 1000.140625 467.089844 966.273438 488.433594 971.097656 L 499.480469 973.578125 C 518.332031 977.816406 549.613281 1003.976562 556.667969 1017.726562 C 558.734375 1014.488281 561.585938 1012.402344 564.789062 1012.402344 L 571.917969 1012.402344 C 575.128906 1012.402344 577.972656 1014.488281 580.046875 1017.726562 C 587.101562 1004.011719 618.382812 977.820312 637.234375 973.578125 L 648.28125 971.097656 C 669.617188 966.308594 667.199219 1000.171875 667.199219 1022.089844 L 667.199219 1022.867188 C 667.199219 1044.746094 649.742188 1058.71875 628.394531 1053.941406 L 617.390625 1051.449219 C 608.125 1049.382812 599.714844 1045.746094 593.050781 1041.367188 C 611.9375 1061.644531 633.632812 1068.414062 663.132812 1076.609375 C 652.617188 1093.710938 675.496094 1129.914062 658.496094 1130.414062 L 658.496094 1130.695312 L 658.464844 1130.414062 C 657.964844 1130.414062 657.78125 1130.695312 657.289062 1130.621094 C 639.789062 1129.15625 592.1875 1082.804688 581 1039.800781 C 578.855469 1044.117188 575.652344 1047.179688 571.878906 1047.179688 Z M 694.484375 1318.21875 C 647.207031 1332.011719 597.714844 1304.789062 583.925781 1257.546875 C 570.101562 1210.1875 597.324219 1160.703125 644.640625 1146.871094 C 653.476562 1144.3125 662.414062 1143.601562 671.253906 1143.8125 C 639.605469 1164.832031 623.511719 1204.308594 634.695312 1242.722656 C 645.84375 1281.140625 680.660156 1305.863281 718.644531 1306.570312 C 711.226562 1311.417969 703.355469 1315.617188 694.484375 1318.21875 Z M 713.226562 1259.816406 L 707.773438 1266.660156 L 705.699219 1258.179688 L 697.433594 1255.121094 L 704.847656 1250.484375 L 705.238281 1241.714844 L 711.976562 1247.34375 L 720.382812 1244.992188 L 717.070312 1253.113281 L 721.914062 1260.417969 Z M 713.226562 1259.816406 " fill-opacity="1" fill-rule="nonzero"/></g><path fill="#a61c41" d="M 505.960938 1081.171875 C 511.988281 1091 496.621094 1100.980469 507.742188 1100.054688 C 518.890625 1099.089844 551.675781 1051.988281 551.675781 1039.691406 C 539.167969 1059.753906 526.730469 1075.402344 505.960938 1081.171875 Z M 505.960938 1081.171875 " fill-opacity="1" fill-rule="nonzero"/><path fill="#a61c41" d="M 530.582031 1004.671875 L 524.3125 1003.246094 C 512.121094 1000.503906 502.1875 1008.503906 502.1875 1020.957031 L 502.1875 1021.449219 C 502.1875 1033.988281 512.128906 1041.902344 524.3125 1039.199219 L 530.582031 1037.773438 C 542.769531 1035.0625 552.742188 1027.609375 552.742188 1021.238281 C 552.742188 1014.847656 542.761719 1007.363281 530.582031 1004.671875 Z M 530.582031 1004.671875 " fill-opacity="1" fill-rule="nonzero"/><g clip-path="url(#cf034aba1a)"><g clip-path="url(#5dd1f2ac06)"><g clip-path="url(#007b65b801)"><path fill="#fbff3c" d="M 416.597656 1063.75 L 423.871094 1069.816406 L 432.996094 1067.265625 L 429.472656 1076.0625 L 434.726562 1083.945312 L 425.273438 1083.316406 L 419.386719 1090.746094 L 417.066406 1081.5625 L 408.1875 1078.261719 L 416.207031 1073.214844 Z M 416.597656 1063.75 " fill-opacity="1" fill-rule="nonzero"/><path fill="#fbff3c" d="M 416.507812 1063.703125 L 423.785156 1069.765625 L 432.90625 1067.214844 L 429.386719 1076.011719 L 434.632812 1083.898438 L 425.179688 1083.269531 L 419.300781 1090.695312 L 416.980469 1081.511719 L 408.097656 1078.210938 L 416.113281 1073.167969 Z M 416.507812 1063.703125 " fill-opacity="1" fill-rule="nonzero"/><path fill="#fbff3c" d="M 416.507812 1063.703125 L 423.785156 1069.765625 L 432.90625 1067.214844 L 429.386719 1076.011719 L 434.632812 1083.898438 L 425.179688 1083.269531 L 419.300781 1090.695312 L 416.980469 1081.511719 L 408.097656 1078.210938 L 416.113281 1073.167969 Z M 416.507812 1063.703125 " fill-opacity="1" fill-rule="nonzero"/><path fill="#fbff3c" d="M 416.507812 1063.703125 L 423.785156 1069.765625 L 432.90625 1067.214844 L 429.386719 1076.011719 L 434.632812 1083.898438 L 425.179688 1083.269531 L 419.300781 1090.695312 L 416.980469 1081.511719 L 408.097656 1078.210938 L 416.113281 1073.167969 Z M 416.507812 1063.703125 " fill-opacity="1" fill-rule="nonzero"/></g></g></g><g clip-path="url(#ddefd298c7)"><g clip-path="url(#7b23a253d5)"><g clip-path="url(#c786339156)"><path fill="#fbff3c" d="M 332.507812 720.828125 L 333.839844 736.160156 L 347.226562 743.75 L 333.050781 749.765625 L 329.976562 764.847656 L 319.882812 753.226562 L 304.578125 754.945312 L 312.507812 741.757812 L 306.152344 727.742188 L 321.144531 731.210938 Z M 332.507812 720.828125 " fill-opacity="1" fill-rule="nonzero"/><path fill="#fbff3c" d="M 332.457031 720.664062 L 333.796875 736 L 347.183594 743.59375 L 333.007812 749.605469 L 329.925781 764.683594 L 319.832031 753.0625 L 304.535156 754.789062 L 312.46875 741.601562 L 306.101562 727.582031 L 321.09375 731.050781 Z M 332.457031 720.664062 " fill-opacity="1" fill-rule="nonzero"/><path fill="#fbff3c" d="M 332.457031 720.664062 L 333.796875 736 L 347.183594 743.59375 L 333.007812 749.605469 L 329.925781 764.683594 L 319.832031 753.0625 L 304.535156 754.789062 L 312.46875 741.601562 L 306.101562 727.582031 L 321.09375 731.050781 Z M 332.457031 720.664062 " fill-opacity="1" fill-rule="nonzero"/><path fill="#fbff3c" d="M 332.457031 720.664062 L 333.796875 736 L 347.183594 743.59375 L 333.007812 749.605469 L 329.925781 764.683594 L 319.832031 753.0625 L 304.535156 754.789062 L 312.46875 741.601562 L 306.101562 727.582031 L 321.09375 731.050781 Z M 332.457031 720.664062 " fill-opacity="1" fill-rule="nonzero"/></g></g></g><g clip-path="url(#593df74b58)"><g clip-path="url(#45d17ed98b)"><g clip-path="url(#59a647350d)"><path fill="#fbff3c" d="M 288.828125 735.78125 L 289.363281 741.570312 L 294.4375 744.410156 L 289.09375 746.714844 L 287.964844 752.417969 L 284.125 748.050781 L 278.347656 748.734375 L 281.316406 743.734375 L 278.882812 738.449219 L 284.554688 739.730469 Z M 288.828125 735.78125 " fill-opacity="1" fill-rule="nonzero"/><path fill="#fbff3c" d="M 288.808594 735.71875 L 289.347656 741.511719 L 294.421875 744.351562 L 289.078125 746.65625 L 287.945312 752.359375 L 284.105469 747.988281 L 278.328125 748.671875 L 281.300781 743.671875 L 278.863281 738.390625 L 284.535156 739.667969 Z M 288.808594 735.71875 " fill-opacity="1" fill-rule="nonzero"/><path fill="#fbff3c" d="M 288.808594 735.71875 L 289.347656 741.511719 L 294.421875 744.351562 L 289.078125 746.65625 L 287.945312 752.359375 L 284.105469 747.988281 L 278.328125 748.671875 L 281.300781 743.671875 L 278.863281 738.390625 L 284.535156 739.667969 Z M 288.808594 735.71875 " fill-opacity="1" fill-rule="nonzero"/><path fill="#fbff3c" d="M 288.808594 735.71875 L 289.347656 741.511719 L 294.421875 744.351562 L 289.078125 746.65625 L 287.945312 752.359375 L 284.105469 747.988281 L 278.328125 748.671875 L 281.300781 743.671875 L 278.863281 738.390625 L 284.535156 739.667969 Z M 288.808594 735.71875 " fill-opacity="1" fill-rule="nonzero"/></g></g></g><g clip-path="url(#4f64cf5015)"><g clip-path="url(#810f280b40)"><g clip-path="url(#ea1b56628f)"><path fill="#fbff3c" d="M 271.644531 754.097656 L 272 757.933594 L 275.363281 759.816406 L 271.824219 761.339844 L 271.074219 765.121094 L 268.53125 762.226562 L 264.703125 762.679688 L 266.667969 759.367188 L 265.058594 755.867188 L 268.816406 756.710938 Z M 271.644531 754.097656 " fill-opacity="1" fill-rule="nonzero"/><path fill="#fbff3c" d="M 271.632812 754.054688 L 271.988281 757.894531 L 275.351562 759.773438 L 271.8125 761.300781 L 271.0625 765.078125 L 268.519531 762.183594 L 264.691406 762.636719 L 266.660156 759.324219 L 265.042969 755.824219 L 268.804688 756.671875 Z M 271.632812 754.054688 " fill-opacity="1" fill-rule="nonzero"/><path fill="#fbff3c" d="M 271.632812 754.054688 L 271.988281 757.894531 L 275.351562 759.773438 L 271.8125 761.300781 L 271.0625 765.078125 L 268.519531 762.183594 L 264.691406 762.636719 L 266.660156 759.324219 L 265.042969 755.824219 L 268.804688 756.671875 Z M 271.632812 754.054688 " fill-opacity="1" fill-rule="nonzero"/><path fill="#fbff3c" d="M 271.632812 754.054688 L 271.988281 757.894531 L 275.351562 759.773438 L 271.8125 761.300781 L 271.0625 765.078125 L 268.519531 762.183594 L 264.691406 762.636719 L 266.660156 759.324219 L 265.042969 755.824219 L 268.804688 756.671875 Z M 271.632812 754.054688 " fill-opacity="1" fill-rule="nonzero"/></g></g></g><g clip-path="url(#451ff491c2)"><g clip-path="url(#7ff09585e0)"><g clip-path="url(#5bf5411698)"><path fill="#fbff3c" d="M 333.929688 701.929688 L 334.222656 705.769531 L 337.554688 707.707031 L 333.988281 709.171875 L 333.179688 712.941406 L 330.683594 710.003906 L 326.847656 710.394531 L 328.867188 707.113281 L 327.3125 703.589844 L 331.058594 704.496094 Z M 333.929688 701.929688 " fill-opacity="1" fill-rule="nonzero"/><path fill="#fbff3c" d="M 333.917969 701.886719 L 334.210938 705.730469 L 337.542969 707.667969 L 333.980469 709.132812 L 333.167969 712.898438 L 330.671875 709.964844 L 326.835938 710.355469 L 328.859375 707.074219 L 327.300781 703.546875 L 331.046875 704.457031 Z M 333.917969 701.886719 " fill-opacity="1" fill-rule="nonzero"/><path fill="#fbff3c" d="M 333.917969 701.886719 L 334.210938 705.730469 L 337.542969 707.667969 L 333.980469 709.132812 L 333.167969 712.898438 L 330.671875 709.964844 L 326.835938 710.355469 L 328.859375 707.074219 L 327.300781 703.546875 L 331.046875 704.457031 Z M 333.917969 701.886719 " fill-opacity="1" fill-rule="nonzero"/><path fill="#fbff3c" d="M 333.917969 701.886719 L 334.210938 705.730469 L 337.542969 707.667969 L 333.980469 709.132812 L 333.167969 712.898438 L 330.671875 709.964844 L 326.835938 710.355469 L 328.859375 707.074219 L 327.300781 703.546875 L 331.046875 704.457031 Z M 333.917969 701.886719 " fill-opacity="1" fill-rule="nonzero"/></g></g></g><g clip-path="url(#b44e586216)"><g clip-path="url(#e5cd024abf)"><g clip-path="url(#5457d90173)"><path fill="#fbff3c" d="M 363.480469 696.679688 L 363.773438 700.519531 L 367.101562 702.457031 L 363.539062 703.921875 L 362.730469 707.691406 L 360.234375 704.753906 L 356.398438 705.144531 L 358.417969 701.863281 L 356.863281 698.339844 L 360.609375 699.246094 Z M 363.480469 696.679688 " fill-opacity="1" fill-rule="nonzero"/><path fill="#fbff3c" d="M 363.46875 696.636719 L 363.761719 700.480469 L 367.09375 702.417969 L 363.527344 703.882812 L 362.714844 707.648438 L 360.21875 704.714844 L 356.386719 705.105469 L 358.40625 701.824219 L 356.851562 698.296875 L 360.59375 699.207031 Z M 363.46875 696.636719 " fill-opacity="1" fill-rule="nonzero"/><path fill="#fbff3c" d="M 363.46875 696.636719 L 363.761719 700.480469 L 367.09375 702.417969 L 363.527344 703.882812 L 362.714844 707.648438 L 360.21875 704.714844 L 356.386719 705.105469 L 358.40625 701.824219 L 356.851562 698.296875 L 360.59375 699.207031 Z M 363.46875 696.636719 " fill-opacity="1" fill-rule="nonzero"/><path fill="#fbff3c" d="M 363.46875 696.636719 L 363.761719 700.480469 L 367.09375 702.417969 L 363.527344 703.882812 L 362.714844 707.648438 L 360.21875 704.714844 L 356.386719 705.105469 L 358.40625 701.824219 L 356.851562 698.296875 L 360.59375 699.207031 Z M 363.46875 696.636719 " fill-opacity="1" fill-rule="nonzero"/></g></g></g><g clip-path="url(#77273ccbaa)"><g clip-path="url(#3e8c7dad9e)"><g clip-path="url(#486ea1a2c2)"><path fill="#fbff3c" d="M 364.257812 717.753906 L 364.667969 723.109375 L 369.308594 725.808594 L 364.339844 727.855469 L 363.210938 733.105469 L 359.730469 729.011719 L 354.386719 729.558594 L 357.203125 724.984375 L 355.035156 720.070312 L 360.253906 721.335938 Z M 364.257812 717.753906 " fill-opacity="1" fill-rule="nonzero"/><path fill="#fbff3c" d="M 364.242188 717.695312 L 364.652344 723.054688 L 369.296875 725.753906 L 364.328125 727.796875 L 363.195312 733.046875 L 359.714844 728.957031 L 354.371094 729.5 L 357.1875 724.929688 L 355.019531 720.011719 L 360.238281 721.277344 Z M 364.242188 717.695312 " fill-opacity="1" fill-rule="nonzero"/><path fill="#fbff3c" d="M 364.242188 717.695312 L 364.652344 723.054688 L 369.296875 725.753906 L 364.328125 727.796875 L 363.195312 733.046875 L 359.714844 728.957031 L 354.371094 729.5 L 357.1875 724.929688 L 355.019531 720.011719 L 360.238281 721.277344 Z M 364.242188 717.695312 " fill-opacity="1" fill-rule="nonzero"/><path fill="#fbff3c" d="M 364.242188 717.695312 L 364.652344 723.054688 L 369.296875 725.753906 L 364.328125 727.796875 L 363.195312 733.046875 L 359.714844 728.957031 L 354.371094 729.5 L 357.1875 724.929688 L 355.019531 720.011719 L 360.238281 721.277344 Z M 364.242188 717.695312 " fill-opacity="1" fill-rule="nonzero"/></g></g></g><g clip-path="url(#a286eca519)"><g clip-path="url(#57f925c711)"><g clip-path="url(#7b4a68d166)"><path fill="#fbff3c" d="M 370.914062 746.433594 L 371.46875 753.667969 L 377.742188 757.316406 L 371.027344 760.078125 L 369.5 767.175781 L 364.800781 761.644531 L 357.578125 762.378906 L 361.382812 756.203125 L 358.453125 749.5625 L 365.507812 751.273438 Z M 370.914062 746.433594 " fill-opacity="1" fill-rule="nonzero"/><path fill="#fbff3c" d="M 370.894531 746.355469 L 371.449219 753.59375 L 377.722656 757.242188 L 371.007812 760.003906 L 369.476562 767.097656 L 364.777344 761.570312 L 357.558594 762.304688 L 361.363281 756.128906 L 358.429688 749.484375 L 365.484375 751.195312 Z M 370.894531 746.355469 " fill-opacity="1" fill-rule="nonzero"/><path fill="#fbff3c" d="M 370.894531 746.355469 L 371.449219 753.59375 L 377.722656 757.242188 L 371.007812 760.003906 L 369.476562 767.097656 L 364.777344 761.570312 L 357.558594 762.304688 L 361.363281 756.128906 L 358.429688 749.484375 L 365.484375 751.195312 Z M 370.894531 746.355469 " fill-opacity="1" fill-rule="nonzero"/><path fill="#fbff3c" d="M 370.894531 746.355469 L 371.449219 753.59375 L 377.722656 757.242188 L 371.007812 760.003906 L 369.476562 767.097656 L 364.777344 761.570312 L 357.558594 762.304688 L 361.363281 756.128906 L 358.429688 749.484375 L 365.484375 751.195312 Z M 370.894531 746.355469 " fill-opacity="1" fill-rule="nonzero"/></g></g></g><g clip-path="url(#ab78e75144)"><path fill="#fbff3c" d="M 442.714844 1111.847656 L 448.949219 1124.488281 L 462.902344 1126.515625 L 452.804688 1136.363281 L 455.195312 1150.257812 L 442.714844 1143.699219 L 430.226562 1150.257812 L 432.609375 1136.363281 L 422.519531 1126.515625 L 436.472656 1124.488281 Z M 442.714844 1111.847656 " fill-opacity="1" fill-rule="nonzero"/><path fill="#fbff3c" d="M 442.617188 1111.726562 L 448.863281 1124.367188 L 462.8125 1126.394531 L 452.714844 1136.242188 L 455.097656 1150.136719 L 442.617188 1143.578125 L 430.136719 1150.136719 L 432.519531 1136.242188 L 422.425781 1126.394531 L 436.375 1124.367188 Z M 442.617188 1111.726562 " fill-opacity="1" fill-rule="nonzero"/><path fill="#fbff3c" d="M 442.617188 1111.726562 L 448.863281 1124.367188 L 462.8125 1126.394531 L 452.714844 1136.242188 L 455.097656 1150.136719 L 442.617188 1143.578125 L 430.136719 1150.136719 L 432.519531 1136.242188 L 422.425781 1126.394531 L 436.375 1124.367188 Z M 442.617188 1111.726562 " fill-opacity="1" fill-rule="nonzero"/><path fill="#fbff3c" d="M 442.617188 1111.726562 L 448.863281 1124.367188 L 462.8125 1126.394531 L 452.714844 1136.242188 L 455.097656 1150.136719 L 442.617188 1143.578125 L 430.136719 1150.136719 L 432.519531 1136.242188 L 422.425781 1126.394531 L 436.375 1124.367188 Z M 442.617188 1111.726562 " fill-opacity="1" fill-rule="nonzero"/></g><g clip-path="url(#6dd7f7eee4)"><path fill="#fbff3c" d="M 534.746094 1120.128906 L 541.398438 1133.609375 L 556.273438 1135.769531 L 545.503906 1146.269531 L 548.054688 1161.085938 L 534.746094 1154.089844 L 521.433594 1161.085938 L 523.972656 1146.269531 L 513.214844 1135.769531 L 528.089844 1133.609375 Z M 534.746094 1120.128906 " fill-opacity="1" fill-rule="nonzero"/></g><g clip-path="url(#3fd47cd470)"><path fill="#fbff3c" d="M 534.644531 1120 L 541.300781 1133.480469 L 556.175781 1135.640625 L 545.410156 1146.140625 L 547.953125 1160.957031 L 534.644531 1153.960938 L 521.335938 1160.957031 L 523.878906 1146.140625 L 513.113281 1135.640625 L 527.984375 1133.480469 Z M 534.644531 1120 " fill-opacity="1" fill-rule="nonzero"/><path fill="#fbff3c" d="M 534.644531 1120 L 541.300781 1133.480469 L 556.175781 1135.640625 L 545.410156 1146.140625 L 547.953125 1160.957031 L 534.644531 1153.960938 L 521.335938 1160.957031 L 523.878906 1146.140625 L 513.113281 1135.640625 L 527.984375 1133.480469 Z M 534.644531 1120 " fill-opacity="1" fill-rule="nonzero"/><path fill="#fbff3c" d="M 534.644531 1120 L 541.300781 1133.480469 L 556.175781 1135.640625 L 545.410156 1146.140625 L 547.953125 1160.957031 L 534.644531 1153.960938 L 521.335938 1160.957031 L 523.878906 1146.140625 L 513.113281 1135.640625 L 527.984375 1133.480469 Z M 534.644531 1120 " fill-opacity="1" fill-rule="nonzero"/></g><g clip-path="url(#24d08caf2a)"><path fill="#fbff3c" d="M 549.308594 1262.234375 L 555.832031 1275.457031 L 570.425781 1277.578125 L 559.863281 1287.878906 L 562.363281 1302.414062 L 549.308594 1295.550781 L 536.246094 1302.414062 L 538.738281 1287.878906 L 528.1875 1277.578125 L 542.777344 1275.457031 Z M 549.308594 1262.234375 " fill-opacity="1" fill-rule="nonzero"/><path fill="#fbff3c" d="M 549.207031 1262.109375 L 555.738281 1275.332031 L 570.332031 1277.453125 L 559.769531 1287.753906 L 562.261719 1302.285156 L 549.207031 1295.425781 L 536.152344 1302.285156 L 538.644531 1287.753906 L 528.085938 1277.453125 L 542.675781 1275.332031 Z M 549.207031 1262.109375 " fill-opacity="1" fill-rule="nonzero"/><path fill="#fbff3c" d="M 549.207031 1262.109375 L 555.738281 1275.332031 L 570.332031 1277.453125 L 559.769531 1287.753906 L 562.261719 1302.285156 L 549.207031 1295.425781 L 536.152344 1302.285156 L 538.644531 1287.753906 L 528.085938 1277.453125 L 542.675781 1275.332031 Z M 549.207031 1262.109375 " fill-opacity="1" fill-rule="nonzero"/><path fill="#fbff3c" d="M 549.207031 1262.109375 L 555.738281 1275.332031 L 570.332031 1277.453125 L 559.769531 1287.753906 L 562.261719 1302.285156 L 549.207031 1295.425781 L 536.152344 1302.285156 L 538.644531 1287.753906 L 528.085938 1277.453125 L 542.675781 1275.332031 Z M 549.207031 1262.109375 " fill-opacity="1" fill-rule="nonzero"/></g><g clip-path="url(#c2ee62f22b)"><g clip-path="url(#17910bdf16)"><g clip-path="url(#3bd7224fd7)"><path fill="#fbff3c" d="M 696.125 1181.527344 L 695.496094 1195.277344 L 706.464844 1203.589844 L 693.1875 1207.246094 L 688.679688 1220.253906 L 681.101562 1208.761719 L 667.332031 1208.480469 L 675.921875 1197.722656 L 671.9375 1184.542969 L 684.824219 1189.390625 Z M 696.125 1181.527344 " fill-opacity="1" fill-rule="nonzero"/><path fill="#fbff3c" d="M 696.097656 1181.375 L 695.476562 1195.128906 L 706.449219 1203.445312 L 693.171875 1207.101562 L 688.65625 1220.105469 L 681.078125 1208.609375 L 667.3125 1208.335938 L 675.902344 1197.578125 L 671.910156 1184.394531 L 684.796875 1189.242188 Z M 696.097656 1181.375 " fill-opacity="1" fill-rule="nonzero"/><path fill="#fbff3c" d="M 696.097656 1181.375 L 695.476562 1195.128906 L 706.449219 1203.445312 L 693.171875 1207.101562 L 688.65625 1220.105469 L 681.078125 1208.609375 L 667.3125 1208.335938 L 675.902344 1197.578125 L 671.910156 1184.394531 L 684.796875 1189.242188 Z M 696.097656 1181.375 " fill-opacity="1" fill-rule="nonzero"/><path fill="#fbff3c" d="M 696.097656 1181.375 L 695.476562 1195.128906 L 706.449219 1203.445312 L 693.171875 1207.101562 L 688.65625 1220.105469 L 681.078125 1208.609375 L 667.3125 1208.335938 L 675.902344 1197.578125 L 671.910156 1184.394531 L 684.796875 1189.242188 Z M 696.097656 1181.375 " fill-opacity="1" fill-rule="nonzero"/></g></g></g><g clip-path="url(#3a4b24d4bd)"><g clip-path="url(#7565e4ac81)"><g clip-path="url(#4df23d52d6)"><path fill="#fbff3c" d="M 706.195312 1242.125 L 713.453125 1247.949219 L 722.363281 1245.269531 L 719.070312 1253.976562 L 724.375 1261.621094 L 715.082031 1261.179688 L 709.4375 1268.585938 L 706.988281 1259.609375 L 698.207031 1256.535156 L 705.984375 1251.429688 Z M 706.195312 1242.125 " fill-opacity="1" fill-rule="nonzero"/><path fill="#fbff3c" d="M 706.101562 1242.078125 L 713.363281 1247.898438 L 722.277344 1245.222656 L 718.984375 1253.929688 L 724.285156 1261.574219 L 714.988281 1261.132812 L 709.351562 1268.539062 L 706.902344 1259.5625 L 698.113281 1256.488281 L 705.894531 1251.382812 Z M 706.101562 1242.078125 " fill-opacity="1" fill-rule="nonzero"/><path fill="#fbff3c" d="M 706.101562 1242.078125 L 713.363281 1247.898438 L 722.277344 1245.222656 L 718.984375 1253.929688 L 724.285156 1261.574219 L 714.988281 1261.132812 L 709.351562 1268.539062 L 706.902344 1259.5625 L 698.113281 1256.488281 L 705.894531 1251.382812 Z M 706.101562 1242.078125 " fill-opacity="1" fill-rule="nonzero"/><path fill="#fbff3c" d="M 706.101562 1242.078125 L 713.363281 1247.898438 L 722.277344 1245.222656 L 718.984375 1253.929688 L 724.285156 1261.574219 L 714.988281 1261.132812 L 709.351562 1268.539062 L 706.902344 1259.5625 L 698.113281 1256.488281 L 705.894531 1251.382812 Z M 706.101562 1242.078125 " fill-opacity="1" fill-rule="nonzero"/></g></g></g><g clip-path="url(#d05b033fd0)"><g clip-path="url(#5faf3ef39b)"><g clip-path="url(#dd318c91a3)"><path fill="#fbff3c" d="M 492.847656 1174.824219 L 495.8125 1194.128906 L 513.398438 1202.628906 L 495.949219 1211.425781 L 493.308594 1230.78125 L 479.554688 1216.90625 L 460.320312 1220.363281 L 469.265625 1203 L 460.042969 1185.777344 L 479.320312 1188.921875 Z M 492.847656 1174.824219 " fill-opacity="1" fill-rule="nonzero"/></g></g></g><g clip-path="url(#4eb10f5ad3)"><g clip-path="url(#139f012ddd)"><g clip-path="url(#1eac113b32)"><path fill="#fbff3c" d="M 492.769531 1174.621094 L 495.746094 1193.929688 L 513.332031 1202.429688 L 495.882812 1211.226562 L 493.230469 1230.582031 L 479.480469 1216.707031 L 460.253906 1220.164062 L 469.199219 1202.800781 L 459.964844 1185.578125 L 479.246094 1188.71875 Z M 492.769531 1174.621094 " fill-opacity="1" fill-rule="nonzero"/><path fill="#fbff3c" d="M 492.769531 1174.621094 L 495.746094 1193.929688 L 513.332031 1202.429688 L 495.882812 1211.226562 L 493.230469 1230.582031 L 479.480469 1216.707031 L 460.253906 1220.164062 L 469.199219 1202.800781 L 459.964844 1185.578125 L 479.246094 1188.71875 Z M 492.769531 1174.621094 " fill-opacity="1" fill-rule="nonzero"/><path fill="#fbff3c" d="M 492.769531 1174.621094 L 495.746094 1193.929688 L 513.332031 1202.429688 L 495.882812 1211.226562 L 493.230469 1230.582031 L 479.480469 1216.707031 L 460.253906 1220.164062 L 469.199219 1202.800781 L 459.964844 1185.578125 L 479.246094 1188.71875 Z M 492.769531 1174.621094 " fill-opacity="1" fill-rule="nonzero"/></g></g></g><g clip-path="url(#c859bb46e7)"><g clip-path="url(#190d617a1a)"><g clip-path="url(#abe0a43858)"><path fill="#fbff3c" d="M 452.714844 1254.230469 L 451.960938 1269.34375 L 463.984375 1278.535156 L 449.371094 1282.492188 L 444.355469 1296.773438 L 436.078125 1284.101562 L 420.941406 1283.730469 L 430.433594 1271.945312 L 426.113281 1257.441406 L 440.257812 1262.824219 Z M 452.714844 1254.230469 " fill-opacity="1" fill-rule="nonzero"/><path fill="#fbff3c" d="M 452.6875 1254.066406 L 451.941406 1269.183594 L 463.964844 1278.375 L 449.351562 1282.335938 L 444.328125 1296.609375 L 436.050781 1283.9375 L 420.917969 1283.570312 L 430.410156 1271.785156 L 426.085938 1257.277344 L 440.226562 1262.660156 Z M 452.6875 1254.066406 " fill-opacity="1" fill-rule="nonzero"/><path fill="#fbff3c" d="M 452.6875 1254.066406 L 451.941406 1269.183594 L 463.964844 1278.375 L 449.351562 1282.335938 L 444.328125 1296.609375 L 436.050781 1283.9375 L 420.917969 1283.570312 L 430.410156 1271.785156 L 426.085938 1257.277344 L 440.226562 1262.660156 Z M 452.6875 1254.066406 " fill-opacity="1" fill-rule="nonzero"/><path fill="#fbff3c" d="M 452.6875 1254.066406 L 451.941406 1269.183594 L 463.964844 1278.375 L 449.351562 1282.335938 L 444.328125 1296.609375 L 436.050781 1283.9375 L 420.917969 1283.570312 L 430.410156 1271.785156 L 426.085938 1257.277344 L 440.226562 1262.660156 Z M 452.6875 1254.066406 " fill-opacity="1" fill-rule="nonzero"/></g></g></g><g clip-path="url(#241771ae38)"><g clip-path="url(#d8f1b9e17a)"><g clip-path="url(#751171ab87)"><path fill="#fbff3c" d="M 487.273438 1317.527344 L 484.519531 1327.507812 L 491.179688 1335.433594 L 480.832031 1335.90625 L 475.355469 1344.695312 L 471.714844 1335 L 461.660156 1332.5 L 469.753906 1326.042969 L 469.027344 1315.710938 L 477.671875 1321.414062 Z M 487.273438 1317.527344 " fill-opacity="1" fill-rule="nonzero"/><path fill="#fbff3c" d="M 487.277344 1317.414062 L 484.527344 1327.398438 L 491.191406 1335.324219 L 480.84375 1335.796875 L 475.363281 1344.582031 L 471.722656 1334.886719 L 461.671875 1332.390625 L 469.765625 1325.929688 L 469.035156 1315.597656 L 477.679688 1321.300781 Z M 487.277344 1317.414062 " fill-opacity="1" fill-rule="nonzero"/><path fill="#fbff3c" d="M 487.277344 1317.414062 L 484.527344 1327.398438 L 491.191406 1335.324219 L 480.84375 1335.796875 L 475.363281 1344.582031 L 471.722656 1334.886719 L 461.671875 1332.390625 L 469.765625 1325.929688 L 469.035156 1315.597656 L 477.679688 1321.300781 Z M 487.277344 1317.414062 " fill-opacity="1" fill-rule="nonzero"/><path fill="#fbff3c" d="M 487.277344 1317.414062 L 484.527344 1327.398438 L 491.191406 1335.324219 L 480.84375 1335.796875 L 475.363281 1344.582031 L 471.722656 1334.886719 L 461.671875 1332.390625 L 469.765625 1325.929688 L 469.035156 1315.597656 L 477.679688 1321.300781 Z M 487.277344 1317.414062 " fill-opacity="1" fill-rule="nonzero"/></g></g></g><g clip-path="url(#6c5756a31b)"><g clip-path="url(#8d0444ac19)"><g clip-path="url(#2069ccc2ba)"><path fill="#fbff3c" d="M 633.847656 1208.320312 C 639.71875 1177.378906 662.65625 1154.023438 691.074219 1146.125 C 690.144531 1145.917969 689.210938 1145.726562 688.261719 1145.546875 C 638.613281 1136.128906 590.71875 1168.738281 581.304688 1218.390625 C 571.886719 1268.042969 604.511719 1315.9375 654.164062 1325.351562 C 685.363281 1331.269531 715.855469 1320.589844 736.546875 1299.511719 C 724.324219 1303.382812 711.003906 1304.367188 697.519531 1301.8125 C 654.121094 1293.582031 625.617188 1251.734375 633.847656 1208.320312 Z M 633.847656 1208.320312 " fill-opacity="1" fill-rule="nonzero"/></g></g></g><g clip-path="url(#37ec3ccd69)"><g clip-path="url(#59066e794d)"><g clip-path="url(#c4adbd53d1)"><path fill="#ffffff" d="M 350.382812 936.246094 C 350.726562 936.261719 351.066406 936.308594 351.402344 936.390625 C 351.734375 936.476562 352.058594 936.59375 352.367188 936.75 C 352.675781 936.902344 352.964844 937.085938 353.234375 937.300781 C 353.507812 937.515625 353.75 937.757812 353.96875 938.023438 C 354.1875 938.289062 354.375 938.578125 354.53125 938.886719 C 354.691406 939.191406 354.8125 939.511719 354.902344 939.847656 C 354.992188 940.179688 355.042969 940.519531 355.058594 940.863281 C 355.078125 941.207031 355.054688 941.550781 355 941.890625 C 354.625 944.144531 354.070312 946.351562 353.332031 948.515625 C 352.59375 950.679688 351.6875 952.765625 350.605469 954.777344 C 349.523438 956.792969 348.285156 958.703125 346.890625 960.511719 C 345.496094 962.324219 343.964844 964.007812 342.292969 965.566406 C 341.726562 966.09375 341.144531 966.609375 340.546875 967.109375 C 339.570312 967.925781 338.558594 968.691406 337.507812 969.417969 C 336.460938 970.140625 335.382812 970.8125 334.277344 971.4375 C 333.167969 972.0625 332.03125 972.636719 330.871094 973.15625 C 329.710938 973.679688 328.527344 974.144531 327.324219 974.558594 C 326.121094 974.972656 324.902344 975.332031 323.664062 975.632812 C 322.429688 975.933594 321.179688 976.179688 319.921875 976.367188 C 318.664062 976.554688 317.398438 976.6875 316.128906 976.757812 C 314.859375 976.832031 313.585938 976.847656 312.316406 976.804688 C 311.042969 976.761719 309.777344 976.660156 308.515625 976.5 C 307.25 976.339844 306 976.125 304.753906 975.851562 C 303.511719 975.578125 302.285156 975.25 301.070312 974.863281 C 299.859375 974.476562 298.667969 974.039062 297.492188 973.542969 C 296.320312 973.050781 295.171875 972.503906 294.050781 971.90625 C 292.929688 971.304688 291.835938 970.65625 290.769531 969.957031 C 289.707031 969.257812 288.679688 968.515625 287.683594 967.722656 C 286.6875 966.929688 285.730469 966.09375 284.808594 965.210938 C 283.011719 963.496094 281.382812 961.632812 279.917969 959.625 C 278.453125 957.617188 277.179688 955.492188 276.09375 953.257812 C 275.007812 951.019531 274.128906 948.707031 273.460938 946.3125 C 272.789062 943.917969 272.332031 941.484375 272.097656 939.011719 C 272.066406 938.671875 272.074219 938.328125 272.117188 937.988281 C 272.15625 937.648438 272.234375 937.316406 272.347656 936.992188 C 272.460938 936.667969 272.605469 936.359375 272.785156 936.066406 C 272.964844 935.773438 273.171875 935.503906 273.40625 935.257812 C 273.644531 935.007812 273.902344 934.785156 274.1875 934.59375 C 274.46875 934.398438 274.769531 934.238281 275.089844 934.109375 C 275.40625 933.980469 275.734375 933.886719 276.070312 933.824219 C 276.410156 933.765625 276.75 933.742188 277.089844 933.753906 Z M 350.382812 936.246094 " fill-opacity="1" fill-rule="nonzero"/></g></g></g><g clip-path="url(#fa84a1de8d)"><g clip-path="url(#105542aba9)"><g clip-path="url(#902b70d9e5)"><path fill="#fbff3c" d="M 340.546875 967.109375 C 339.570312 967.925781 338.558594 968.691406 337.507812 969.417969 C 336.460938 970.140625 335.382812 970.8125 334.277344 971.4375 C 333.167969 972.0625 332.03125 972.636719 330.871094 973.15625 C 329.710938 973.679688 328.527344 974.144531 327.324219 974.558594 C 326.121094 974.972656 324.902344 975.332031 323.664062 975.632812 C 322.429688 975.933594 321.179688 976.179688 319.921875 976.367188 C 318.664062 976.554688 317.398438 976.6875 316.128906 976.757812 C 314.859375 976.832031 313.585938 976.847656 312.316406 976.804688 C 311.042969 976.761719 309.777344 976.660156 308.515625 976.5 C 307.25 976.339844 306 976.125 304.757812 975.851562 C 303.511719 975.578125 302.285156 975.25 301.070312 974.863281 C 299.859375 974.476562 298.667969 974.039062 297.492188 973.542969 C 296.320312 973.050781 295.171875 972.503906 294.050781 971.90625 C 292.929688 971.304688 291.835938 970.65625 290.769531 969.957031 C 289.707031 969.257812 288.679688 968.515625 287.683594 967.722656 C 286.6875 966.929688 285.730469 966.09375 284.808594 965.210938 C 285.203125 964.644531 285.609375 964.085938 286.039062 963.542969 C 286.464844 963 286.90625 962.46875 287.367188 961.953125 C 287.828125 961.4375 288.304688 960.9375 288.792969 960.449219 C 289.285156 959.964844 289.792969 959.496094 290.3125 959.039062 C 290.832031 958.585938 291.367188 958.148438 291.914062 957.726562 C 292.464844 957.304688 293.023438 956.902344 293.597656 956.515625 C 294.171875 956.132812 294.753906 955.765625 295.351562 955.414062 C 295.949219 955.066406 296.554688 954.734375 297.171875 954.425781 C 297.789062 954.113281 298.414062 953.820312 299.050781 953.550781 C 299.6875 953.277344 300.328125 953.027344 300.980469 952.792969 C 301.632812 952.5625 302.289062 952.351562 302.953125 952.160156 C 303.617188 951.972656 304.289062 951.800781 304.960938 951.652344 C 305.636719 951.503906 306.316406 951.378906 307 951.273438 C 307.683594 951.164062 308.367188 951.082031 309.054688 951.019531 C 309.746094 950.957031 310.433594 950.914062 311.125 950.894531 C 311.816406 950.875 312.507812 950.875 313.195312 950.898438 C 313.886719 950.921875 314.578125 950.96875 315.265625 951.035156 C 315.953125 951.101562 316.636719 951.191406 317.320312 951.300781 C 318.003906 951.410156 318.679688 951.539062 319.355469 951.691406 C 320.027344 951.84375 320.699219 952.015625 321.359375 952.210938 C 322.023438 952.40625 322.679688 952.621094 323.332031 952.855469 C 323.980469 953.089844 324.621094 953.34375 325.257812 953.621094 C 325.890625 953.894531 326.515625 954.191406 327.128906 954.503906 C 327.746094 954.820312 328.351562 955.152344 328.945312 955.503906 C 329.539062 955.859375 330.121094 956.226562 330.695312 956.617188 C 331.265625 957.003906 331.824219 957.414062 332.371094 957.835938 C 332.914062 958.261719 333.449219 958.699219 333.964844 959.15625 C 334.484375 959.613281 334.988281 960.085938 335.476562 960.578125 C 335.964844 961.066406 336.4375 961.570312 336.894531 962.085938 C 337.351562 962.605469 337.792969 963.136719 338.214844 963.683594 C 338.640625 964.230469 339.046875 964.789062 339.433594 965.359375 C 339.824219 965.929688 340.195312 966.515625 340.546875 967.109375 Z M 340.546875 967.109375 " fill-opacity="1" fill-rule="nonzero"/></g></g></g><g clip-path="url(#dd7d05a567)"><path fill="#fbff3c" d="M 367.722656 877.617188 C 367.722656 878.527344 367.632812 879.429688 367.453125 880.324219 C 367.277344 881.214844 367.015625 882.082031 366.664062 882.925781 C 366.316406 883.765625 365.890625 884.566406 365.382812 885.324219 C 364.875 886.082031 364.300781 886.78125 363.65625 887.425781 C 363.011719 888.070312 362.3125 888.644531 361.554688 889.152344 C 360.796875 889.660156 359.996094 890.085938 359.15625 890.433594 C 358.316406 890.78125 357.445312 891.046875 356.554688 891.222656 C 355.660156 891.402344 354.757812 891.492188 353.847656 891.492188 C 352.933594 891.492188 352.03125 891.402344 351.140625 891.222656 C 350.246094 891.046875 349.378906 890.78125 348.535156 890.433594 C 347.695312 890.085938 346.894531 889.660156 346.136719 889.152344 C 345.378906 888.644531 344.679688 888.070312 344.035156 887.425781 C 343.390625 886.78125 342.816406 886.082031 342.308594 885.324219 C 341.804688 884.566406 341.375 883.765625 341.027344 882.925781 C 340.679688 882.082031 340.417969 881.214844 340.238281 880.324219 C 340.0625 879.429688 339.972656 878.527344 339.972656 877.617188 C 339.972656 876.703125 340.0625 875.800781 340.238281 874.910156 C 340.417969 874.015625 340.679688 873.148438 341.027344 872.304688 C 341.375 871.464844 341.804688 870.664062 342.308594 869.90625 C 342.816406 869.148438 343.390625 868.449219 344.035156 867.804688 C 344.679688 867.160156 345.378906 866.585938 346.136719 866.078125 C 346.894531 865.574219 347.695312 865.144531 348.535156 864.796875 C 349.378906 864.449219 350.246094 864.183594 351.140625 864.007812 C 352.03125 863.828125 352.933594 863.742188 353.847656 863.742188 C 354.757812 863.742188 355.660156 863.828125 356.554688 864.007812 C 357.445312 864.183594 358.316406 864.449219 359.15625 864.796875 C 359.996094 865.144531 360.796875 865.574219 361.554688 866.078125 C 362.3125 866.585938 363.011719 867.160156 363.65625 867.804688 C 364.300781 868.449219 364.875 869.148438 365.382812 869.90625 C 365.890625 870.664062 366.316406 871.464844 366.664062 872.304688 C 367.015625 873.148438 367.277344 874.015625 367.453125 874.910156 C 367.632812 875.800781 367.722656 876.703125 367.722656 877.617188 Z M 367.722656 877.617188 " fill-opacity="1" fill-rule="nonzero"/></g><g clip-path="url(#21c4d0e895)"><path fill="#a61c41" d="M 443.40625 680.152344 C 443.40625 681.027344 443.363281 681.894531 443.277344 682.761719 C 443.191406 683.628906 443.066406 684.492188 442.894531 685.347656 C 442.726562 686.203125 442.515625 687.046875 442.261719 687.878906 C 442.007812 688.714844 441.714844 689.535156 441.378906 690.339844 C 441.046875 691.144531 440.675781 691.933594 440.265625 692.703125 C 439.851562 693.46875 439.40625 694.21875 438.921875 694.941406 C 438.4375 695.667969 437.917969 696.367188 437.363281 697.039062 C 436.8125 697.714844 436.226562 698.359375 435.609375 698.976562 C 434.992188 699.59375 434.347656 700.175781 433.675781 700.730469 C 433 701.285156 432.300781 701.800781 431.578125 702.285156 C 430.851562 702.769531 430.105469 703.21875 429.335938 703.628906 C 428.566406 704.039062 427.78125 704.414062 426.976562 704.746094 C 426.167969 705.078125 425.347656 705.375 424.515625 705.625 C 423.679688 705.878906 422.835938 706.089844 421.980469 706.261719 C 421.125 706.429688 420.265625 706.558594 419.398438 706.644531 C 418.53125 706.730469 417.660156 706.773438 416.789062 706.773438 C 415.917969 706.773438 415.046875 706.730469 414.179688 706.644531 C 413.3125 706.558594 412.449219 706.429688 411.59375 706.261719 C 410.738281 706.089844 409.894531 705.878906 409.0625 705.625 C 408.226562 705.375 407.40625 705.078125 406.601562 704.746094 C 405.796875 704.414062 405.007812 704.039062 404.238281 703.628906 C 403.472656 703.21875 402.722656 702.769531 402 702.285156 C 401.273438 701.800781 400.574219 701.285156 399.902344 700.730469 C 399.226562 700.175781 398.582031 699.59375 397.964844 698.976562 C 397.347656 698.359375 396.765625 697.714844 396.210938 697.039062 C 395.660156 696.367188 395.140625 695.667969 394.65625 694.941406 C 394.171875 694.21875 393.722656 693.46875 393.3125 692.703125 C 392.902344 691.933594 392.527344 691.144531 392.195312 690.339844 C 391.863281 689.535156 391.570312 688.714844 391.316406 687.878906 C 391.0625 687.046875 390.851562 686.203125 390.679688 685.347656 C 390.511719 684.492188 390.382812 683.628906 390.296875 682.761719 C 390.210938 681.894531 390.167969 681.027344 390.167969 680.152344 C 390.167969 679.28125 390.210938 678.414062 390.296875 677.542969 C 390.382812 676.675781 390.511719 675.816406 390.679688 674.960938 C 390.851562 674.105469 391.0625 673.261719 391.316406 672.425781 C 391.570312 671.59375 391.863281 670.773438 392.195312 669.96875 C 392.527344 669.160156 392.902344 668.375 393.3125 667.605469 C 393.722656 666.835938 394.171875 666.089844 394.65625 665.367188 C 395.140625 664.640625 395.660156 663.941406 396.210938 663.265625 C 396.765625 662.59375 397.347656 661.949219 397.964844 661.332031 C 398.582031 660.714844 399.226562 660.128906 399.902344 659.578125 C 400.574219 659.023438 401.273438 658.503906 402 658.019531 C 402.722656 657.535156 403.472656 657.089844 404.238281 656.679688 C 405.007812 656.265625 405.796875 655.894531 406.601562 655.5625 C 407.40625 655.226562 408.226562 654.933594 409.0625 654.679688 C 409.894531 654.429688 410.738281 654.214844 411.59375 654.046875 C 412.449219 653.875 413.3125 653.75 414.179688 653.664062 C 415.046875 653.578125 415.917969 653.535156 416.789062 653.535156 C 417.660156 653.535156 418.53125 653.578125 419.398438 653.664062 C 420.265625 653.75 421.125 653.875 421.980469 654.046875 C 422.835938 654.214844 423.679688 654.429688 424.515625 654.679688 C 425.347656 654.933594 426.167969 655.226562 426.976562 655.5625 C 427.78125 655.894531 428.566406 656.265625 429.335938 656.679688 C 430.105469 657.089844 430.851562 657.535156 431.578125 658.019531 C 432.300781 658.503906 433 659.023438 433.675781 659.578125 C 434.347656 660.128906 434.992188 660.714844 435.609375 661.332031 C 436.226562 661.949219 436.8125 662.59375 437.363281 663.265625 C 437.917969 663.941406 438.4375 664.640625 438.921875 665.367188 C 439.40625 666.089844 439.851562 666.835938 440.265625 667.605469 C 440.675781 668.375 441.046875 669.160156 441.378906 669.96875 C 441.714844 670.773438 442.007812 671.59375 442.261719 672.425781 C 442.515625 673.261719 442.726562 674.105469 442.894531 674.960938 C 443.066406 675.816406 443.191406 676.675781 443.277344 677.542969 C 443.363281 678.414062 443.40625 679.28125 443.40625 680.152344 Z M 443.40625 680.152344 " fill-opacity="1" fill-rule="nonzero"/></g><g clip-path="url(#72fb4a5402)"><path fill="#fbff3c" d="M 286.734375 877.617188 C 286.734375 878.527344 286.644531 879.429688 286.46875 880.324219 C 286.289062 881.214844 286.027344 882.082031 285.679688 882.925781 C 285.328125 883.765625 284.902344 884.566406 284.394531 885.324219 C 283.890625 886.082031 283.316406 886.78125 282.671875 887.425781 C 282.027344 888.070312 281.324219 888.644531 280.566406 889.152344 C 279.8125 889.660156 279.011719 890.085938 278.167969 890.433594 C 277.328125 890.78125 276.460938 891.046875 275.566406 891.222656 C 274.671875 891.402344 273.769531 891.492188 272.859375 891.492188 C 271.949219 891.492188 271.046875 891.402344 270.152344 891.222656 C 269.257812 891.046875 268.390625 890.78125 267.550781 890.433594 C 266.707031 890.085938 265.910156 889.660156 265.152344 889.152344 C 264.394531 888.644531 263.691406 888.070312 263.046875 887.425781 C 262.40625 886.78125 261.828125 886.082031 261.324219 885.324219 C 260.816406 884.566406 260.390625 883.765625 260.039062 882.925781 C 259.691406 882.082031 259.429688 881.214844 259.25 880.324219 C 259.074219 879.429688 258.984375 878.527344 258.984375 877.617188 C 258.984375 876.703125 259.074219 875.800781 259.25 874.910156 C 259.429688 874.015625 259.691406 873.148438 260.039062 872.304688 C 260.390625 871.464844 260.816406 870.664062 261.324219 869.90625 C 261.828125 869.148438 262.40625 868.449219 263.046875 867.804688 C 263.691406 867.160156 264.394531 866.585938 265.152344 866.078125 C 265.910156 865.574219 266.707031 865.144531 267.550781 864.796875 C 268.390625 864.449219 269.257812 864.183594 270.152344 864.007812 C 271.046875 863.828125 271.949219 863.742188 272.859375 863.742188 C 273.769531 863.742188 274.671875 863.828125 275.566406 864.007812 C 276.460938 864.183594 277.328125 864.449219 278.167969 864.796875 C 279.011719 865.144531 279.8125 865.574219 280.566406 866.078125 C 281.324219 866.585938 282.027344 867.160156 282.671875 867.804688 C 283.316406 868.449219 283.890625 869.148438 284.394531 869.90625 C 284.902344 870.664062 285.328125 871.464844 285.679688 872.304688 C 286.027344 873.148438 286.289062 874.015625 286.46875 874.910156 C 286.644531 875.800781 286.734375 876.703125 286.734375 877.617188 Z M 286.734375 877.617188 " fill-opacity="1" fill-rule="nonzero"/></g><g clip-path="url(#be9a136ec2)"><path fill="#a61c41" d="M 276.980469 877.617188 C 276.980469 877.886719 276.953125 878.152344 276.898438 878.417969 C 276.847656 878.683594 276.769531 878.941406 276.664062 879.191406 C 276.5625 879.441406 276.433594 879.679688 276.285156 879.902344 C 276.132812 880.128906 275.964844 880.335938 275.773438 880.527344 C 275.582031 880.71875 275.371094 880.890625 275.148438 881.039062 C 274.921875 881.191406 274.6875 881.316406 274.4375 881.421875 C 274.1875 881.523438 273.929688 881.601562 273.664062 881.65625 C 273.398438 881.707031 273.128906 881.734375 272.859375 881.734375 C 272.589844 881.734375 272.320312 881.707031 272.054688 881.65625 C 271.789062 881.601562 271.53125 881.523438 271.285156 881.421875 C 271.035156 881.316406 270.796875 881.191406 270.570312 881.039062 C 270.347656 880.890625 270.136719 880.71875 269.945312 880.527344 C 269.753906 880.335938 269.585938 880.128906 269.433594 879.902344 C 269.285156 879.679688 269.15625 879.441406 269.054688 879.191406 C 268.949219 878.941406 268.871094 878.683594 268.820312 878.417969 C 268.765625 878.152344 268.742188 877.886719 268.742188 877.617188 C 268.742188 877.34375 268.765625 877.078125 268.820312 876.8125 C 268.871094 876.546875 268.949219 876.289062 269.054688 876.039062 C 269.15625 875.789062 269.285156 875.550781 269.433594 875.328125 C 269.585938 875.101562 269.753906 874.894531 269.945312 874.703125 C 270.136719 874.511719 270.347656 874.339844 270.570312 874.191406 C 270.796875 874.039062 271.035156 873.914062 271.285156 873.808594 C 271.53125 873.707031 271.789062 873.628906 272.054688 873.574219 C 272.320312 873.523438 272.589844 873.496094 272.859375 873.496094 C 273.128906 873.496094 273.398438 873.523438 273.664062 873.574219 C 273.929688 873.628906 274.1875 873.707031 274.4375 873.808594 C 274.6875 873.914062 274.921875 874.039062 275.148438 874.191406 C 275.371094 874.339844 275.582031 874.511719 275.773438 874.703125 C 275.964844 874.894531 276.132812 875.101562 276.285156 875.328125 C 276.433594 875.550781 276.5625 875.789062 276.664062 876.039062 C 276.769531 876.289062 276.847656 876.546875 276.898438 876.8125 C 276.953125 877.078125 276.980469 877.34375 276.980469 877.617188 Z M 276.980469 877.617188 " fill-opacity="1" fill-rule="nonzero"/></g><g clip-path="url(#35d53dea0f)"><path fill="#a61c41" d="M 357.964844 877.617188 C 357.964844 877.886719 357.9375 878.152344 357.886719 878.417969 C 357.832031 878.683594 357.753906 878.941406 357.652344 879.191406 C 357.546875 879.441406 357.421875 879.679688 357.269531 879.902344 C 357.121094 880.128906 356.949219 880.335938 356.757812 880.527344 C 356.566406 880.71875 356.359375 880.890625 356.136719 881.039062 C 355.910156 881.191406 355.671875 881.316406 355.421875 881.421875 C 355.171875 881.523438 354.914062 881.601562 354.648438 881.65625 C 354.386719 881.707031 354.117188 881.734375 353.847656 881.734375 C 353.574219 881.734375 353.308594 881.707031 353.042969 881.65625 C 352.777344 881.601562 352.519531 881.523438 352.269531 881.421875 C 352.019531 881.316406 351.78125 881.191406 351.558594 881.039062 C 351.332031 880.890625 351.125 880.71875 350.933594 880.527344 C 350.742188 880.335938 350.570312 880.128906 350.421875 879.902344 C 350.269531 879.679688 350.144531 879.441406 350.039062 879.191406 C 349.9375 878.941406 349.859375 878.683594 349.804688 878.417969 C 349.753906 878.152344 349.726562 877.886719 349.726562 877.617188 C 349.726562 877.34375 349.753906 877.078125 349.804688 876.8125 C 349.859375 876.546875 349.9375 876.289062 350.039062 876.039062 C 350.144531 875.789062 350.269531 875.550781 350.421875 875.328125 C 350.570312 875.101562 350.742188 874.894531 350.933594 874.703125 C 351.125 874.511719 351.332031 874.339844 351.558594 874.191406 C 351.78125 874.039062 352.019531 873.914062 352.269531 873.808594 C 352.519531 873.707031 352.777344 873.628906 353.042969 873.574219 C 353.308594 873.523438 353.574219 873.496094 353.847656 873.496094 C 354.117188 873.496094 354.386719 873.523438 354.648438 873.574219 C 354.914062 873.628906 355.171875 873.707031 355.421875 873.808594 C 355.671875 873.914062 355.910156 874.039062 356.136719 874.191406 C 356.359375 874.339844 356.566406 874.511719 356.757812 874.703125 C 356.949219 874.894531 357.121094 875.101562 357.269531 875.328125 C 357.421875 875.550781 357.546875 875.789062 357.652344 876.039062 C 357.753906 876.289062 357.832031 876.546875 357.886719 876.8125 C 357.9375 877.078125 357.964844 877.34375 357.964844 877.617188 Z M 357.964844 877.617188 " fill-opacity="1" fill-rule="nonzero"/></g><g clip-path="url(#a152c8a469)"><path fill="#000000" d="M 289.074219 176.519531 L 609.898438 178.804688 C 629.714844 178.945312 663.273438 184.015625 670.410156 211.925781 C 678.65625 248.625 681.40625 413.796875 668.125 439.207031 C 658.339844 459.703125 649.25 466.539062 639.585938 472.328125 C 610.960938 486.082031 477.457031 483.746094 477.457031 483.746094 L 307.34375 579.6875 L 416.953125 482.605469 L 278.796875 482.605469 C 259.414062 482.605469 241.6875 470.410156 235.414062 443.773438 C 224.492188 395.40625 222.363281 259.75 233.128906 227.910156 C 243.332031 198.824219 260.476562 176.3125 289.074219 176.515625 Z M 289.074219 176.519531 " fill-opacity="0.5" fill-rule="evenodd"/></g><path fill="#ffffff" d="M 276.75 165.730469 L 597.574219 168.015625 C 617.390625 168.15625 650.945312 173.226562 658.085938 201.136719 C 666.332031 237.835938 669.078125 403.007812 655.800781 428.417969 C 646.011719 448.914062 636.921875 455.75 627.261719 461.539062 C 598.632812 475.292969 465.132812 472.960938 465.132812 472.960938 L 295.019531 568.898438 L 404.625 471.816406 L 266.472656 471.816406 C 247.089844 471.816406 229.359375 459.621094 223.089844 432.984375 C 212.164062 384.617188 210.039062 248.960938 220.804688 217.121094 C 231.003906 188.035156 248.152344 165.523438 276.75 165.726562 Z M 276.75 165.730469 " fill-opacity="1" fill-rule="evenodd"/><g clip-path="url(#9456b3466c)"><path stroke-linecap="butt" transform="matrix(0.952119, 0, 0, 0.952446, 203.678439, 138.359778)" fill="none" stroke-linejoin="round" d="M 76.746243 28.737262 L 413.704331 31.136512 C 434.517281 31.284158 469.759394 36.607623 477.259113 65.911285 C 485.919893 104.442832 488.804084 277.861454 474.859039 304.540296 C 464.577696 326.059724 455.030735 333.236968 444.884781 339.315068 C 414.816161 353.755683 274.602604 351.307218 274.602604 351.307218 L 95.934527 452.034712 L 211.051925 350.105542 L 65.952064 350.105542 C 45.594513 350.105542 26.9724 337.301339 20.387581 309.334695 C 8.912355 258.552617 6.680492 116.123284 17.987507 82.693732 C 28.699633 52.155584 46.710445 28.519894 76.746243 28.73316 Z M 76.746243 28.737262 " stroke="#000000" stroke-width="10" stroke-opacity="1" stroke-miterlimit="4"/></g><path fill="#89fd00" d="M 627.621094 1112.398438 C 626.167969 1110.722656 624.601562 1109.15625 622.925781 1107.703125 C 608.199219 1092.910156 596.402344 1076.023438 587.535156 1057.046875 C 585.414062 1052.136719 583.625 1047.105469 582.167969 1041.949219 C 580.527344 1044.59375 578.347656 1046.664062 575.625 1048.15625 C 572.0625 1048.664062 568.484375 1048.773438 564.890625 1048.492188 C 561.078125 1047.703125 558.339844 1045.523438 556.671875 1041.949219 C 551.90625 1056.765625 545.082031 1070.519531 536.207031 1083.210938 C 526.421875 1097.25 514.960938 1109.832031 501.820312 1120.953125 C 497.914062 1123.914062 493.886719 1126.710938 489.746094 1129.339844 C 486.144531 1131.601562 482.230469 1132.890625 478.003906 1133.199219 C 474.378906 1133.539062 472.085938 1131.972656 471.125 1128.5 C 470.902344 1125.707031 470.902344 1122.910156 471.125 1120.113281 C 472.425781 1113.058594 473.765625 1106.015625 475.152344 1098.980469 C 476.71875 1091.65625 475.992188 1084.613281 472.972656 1077.84375 C 486.609375 1074.410156 499.914062 1069.992188 512.890625 1064.59375 C 523.453125 1059.765625 532.847656 1053.277344 541.070312 1045.136719 C 537.835938 1046.472656 534.59375 1047.925781 531.34375 1049.5 C 521.238281 1052.90625 510.894531 1055.199219 500.3125 1056.375 C 486.785156 1056.214844 477.167969 1050.066406 471.460938 1037.925781 C 470.257812 1034.898438 469.476562 1031.765625 469.113281 1028.53125 C 469.015625 1021.261719 468.847656 1013.992188 468.609375 1006.726562 C 468.59375 998.691406 469.433594 990.753906 471.125 982.90625 C 471.730469 980.585938 472.683594 978.460938 473.976562 976.535156 C 474.425781 976.199219 474.871094 975.863281 475.320312 975.527344 C 476.609375 974.691406 477.503906 973.574219 478.003906 972.171875 C 479.191406 971.3125 480.53125 970.808594 482.027344 970.664062 C 493.667969 971.167969 504.625 974.1875 514.90625 979.722656 C 531.777344 989.269531 545.976562 1001.847656 557.507812 1017.460938 C 558.929688 1015.984375 560.492188 1014.699219 562.207031 1013.601562 C 566.902344 1012.484375 571.597656 1012.484375 576.296875 1013.601562 C 578.328125 1014.519531 579.949219 1015.917969 581.160156 1017.796875 C 583.136719 1014.480469 585.371094 1011.347656 587.867188 1008.402344 C 598.648438 996.945312 610.78125 987.273438 624.265625 979.386719 C 634.476562 974.058594 645.320312 971.148438 656.808594 970.664062 C 659.609375 971.226562 661.898438 972.625 663.683594 974.855469 C 666.882812 980.089844 668.671875 985.792969 669.050781 991.964844 C 669.824219 1003.246094 670.046875 1014.542969 669.722656 1025.847656 C 667.894531 1045.011719 657.382812 1055.1875 638.1875 1056.375 C 627.097656 1055.152344 616.304688 1052.636719 605.816406 1048.828125 C 602.859375 1047.460938 599.953125 1046.117188 597.09375 1044.800781 C 606.726562 1054.199219 617.796875 1061.46875 630.304688 1066.605469 C 641.820312 1071.0625 653.5625 1074.808594 665.53125 1077.84375 C 664.773438 1079.949219 664.046875 1082.074219 663.347656 1084.21875 C 662.703125 1089.023438 662.703125 1093.832031 663.347656 1098.644531 C 664.535156 1105.363281 665.765625 1112.070312 667.039062 1118.773438 C 667.671875 1122.132812 667.671875 1125.484375 667.039062 1128.835938 C 665.640625 1132.117188 663.125 1133.574219 659.492188 1133.199219 C 655.640625 1132.679688 652.0625 1131.390625 648.757812 1129.339844 C 640.96875 1124.628906 633.925781 1118.984375 627.621094 1112.398438 Z M 517.925781 1003.371094 C 527.613281 1003.863281 536.671875 1006.492188 545.097656 1011.253906 C 548.316406 1013.355469 550.832031 1016.097656 552.644531 1019.472656 C 553.554688 1022.449219 552.996094 1025.132812 550.96875 1027.523438 C 545.554688 1033.113281 539.011719 1036.746094 531.34375 1038.429688 C 527.648438 1039.449219 523.902344 1040.175781 520.105469 1040.609375 C 510.300781 1039.972656 504.484375 1034.828125 502.660156 1025.175781 C 501.496094 1013.390625 506.582031 1006.125 517.925781 1003.371094 Z M 616.886719 1003.371094 C 627.265625 1003.332031 633.585938 1008.363281 635.839844 1018.46875 C 637.1875 1028.132812 633.554688 1035.121094 624.9375 1039.433594 C 621.0625 1040.84375 617.148438 1040.957031 613.195312 1039.769531 C 606.160156 1038.617188 599.5625 1036.269531 593.402344 1032.726562 C 589.800781 1030.464844 587.171875 1027.390625 585.519531 1023.5 C 585.167969 1020.867188 585.839844 1018.519531 587.535156 1016.453125 C 592.949219 1010.867188 599.488281 1007.234375 607.160156 1005.550781 C 610.433594 1004.761719 613.675781 1004.03125 616.886719 1003.371094 Z M 551.804688 1042.621094 C 551.226562 1045.535156 550.277344 1048.332031 548.953125 1051.007812 C 541.921875 1064.964844 533.3125 1077.824219 523.125 1089.585938 C 520.039062 1092.785156 516.851562 1095.859375 513.5625 1098.8125 C 512.097656 1099.878906 510.53125 1100.777344 508.867188 1101.496094 C 507.261719 1101.789062 505.695312 1101.679688 504.171875 1101.160156 C 503.816406 1100.695312 503.761719 1100.191406 504.003906 1099.652344 C 505.214844 1096.894531 506.332031 1094.097656 507.355469 1091.265625 C 508.121094 1088.410156 507.839844 1085.671875 506.519531 1083.046875 C 515.191406 1080.445312 522.90625 1076.195312 529.664062 1070.296875 C 538.300781 1061.996094 545.683594 1052.773438 551.804688 1042.621094 Z M 586.695312 1042.621094 C 590.46875 1048.132812 594.324219 1053.613281 598.269531 1059.058594 C 605.492188 1068.523438 614.496094 1075.738281 625.273438 1080.695312 C 627.539062 1081.507812 629.773438 1082.34375 631.984375 1083.210938 C 631.609375 1083.84375 631.332031 1084.515625 631.144531 1085.226562 C 630.921875 1087.125 630.921875 1089.027344 631.144531 1090.929688 C 632.175781 1094.054688 633.351562 1097.132812 634.667969 1100.152344 C 634.574219 1100.621094 634.347656 1101.011719 633.996094 1101.328125 C 631.171875 1102.089844 628.601562 1101.585938 626.28125 1099.820312 C 621.097656 1095.53125 616.347656 1090.777344 612.023438 1085.5625 C 603.558594 1075.011719 596.175781 1063.71875 589.882812 1051.679688 C 588.515625 1048.757812 587.453125 1045.738281 586.695312 1042.621094 Z M 586.695312 1042.621094 " fill-opacity="1" fill-rule="evenodd"/><path fill="#ddf0c5" d="M 478.003906 972.171875 C 477.503906 973.574219 476.609375 974.691406 475.320312 975.527344 C 475.855469 974.542969 476.523438 973.648438 477.332031 972.84375 C 477.445312 972.507812 477.667969 972.285156 478.003906 972.171875 Z M 478.003906 972.171875 " fill-opacity="1" fill-rule="evenodd"/><path fill="#494d44" d="M 477.332031 972.84375 C 476.523438 973.648438 475.855469 974.542969 475.320312 975.527344 C 474.871094 975.863281 474.425781 976.199219 473.976562 976.535156 C 474.628906 974.875 475.746094 973.648438 477.332031 972.84375 Z M 477.332031 972.84375 " fill-opacity="0.592" fill-rule="evenodd"/><path fill="#6abf05" d="M 622.925781 1107.703125 C 624.601562 1109.15625 626.167969 1110.722656 627.621094 1112.398438 C 625.722656 1111.167969 624.15625 1109.601562 622.925781 1107.703125 Z M 622.925781 1107.703125 " fill-opacity="0.216" fill-rule="evenodd"/></svg>